<svg width="146" height="145" viewBox="0 0 146 145" fill="none" xmlns="http://www.w3.org/2000/svg">
<path d="M112 84C112 62.4609 94.5391 45 73 45C51.4609 45 34 62.4609 34 84C34 105.539 51.4609 123 73 123C94.5391 123 112 105.539 112 84Z" fill="#005091"/>
<path d="M112 84C112 62.4609 94.5391 45 73 45C51.4609 45 34 62.4609 34 84C34 105.539 51.4609 123 73 123C94.5391 123 112 105.539 112 84Z" stroke="#8AAFCC" stroke-width="2"/>
<path d="M73 100V76.7265M85.4436 83.9995V98.2217C85.4436 99.2031 84.6472 99.9995 83.6659 99.9995H62.3332C61.3519 99.9995 60.5554 99.2031 60.5554 98.2217V83.9995M87.2222 76.7265H58.7778C57.7964 76.7265 57 77.3782 57 78.1811V81.0903C57 81.8933 57.7964 82.5449 58.7778 82.5449H87.2222C88.2036 82.5449 89 81.8933 89 81.0903V78.1811C89 77.3782 88.2036 76.7265 87.2222 76.7265ZM79.569 74.4203C77.6526 76.415 74.6358 76.8879 73.1745 76.8879C73.1745 76.8879 72.2967 71.3486 74.4566 69.1014C75.8682 67.633 78.1577 67.6328 79.5693 69.1012C80.9808 70.5697 80.9805 72.9519 79.569 74.4203ZM66.4301 74.4203C68.3465 76.415 71.3633 76.8879 72.8246 76.8879C72.8246 76.8879 73.7026 71.3486 71.5426 69.1014C70.1311 67.633 67.8404 67.6328 66.4289 69.1012C65.0174 70.5697 65.0186 72.9519 66.4301 74.4203Z" stroke="#E6EEF4" stroke-width="3" stroke-linecap="round" stroke-linejoin="round"/>
<path d="M17 39C19.7614 39 22 36.7614 22 34C22 31.2386 19.7614 29 17 29C14.2386 29 12 31.2386 12 34C12 36.7614 14.2386 39 17 39Z" fill="#548AB5"/>
<path d="M139 75C141.761 75 144 72.7614 144 70C144 67.2386 141.761 65 139 65C136.239 65 134 67.2386 134 70C134 72.7614 136.239 75 139 75Z" fill="#8AAFCC"/>
<path d="M24.5 121C28.6421 121 32 117.642 32 113.5C32 109.358 28.6421 106 24.5 106C20.3579 106 17 109.358 17 113.5C17 117.642 20.3579 121 24.5 121Z" fill="#E6EEF4"/>
<path d="M56 145C58.7614 145 61 142.761 61 140C61 137.239 58.7614 135 56 135C53.2386 135 51 137.239 51 140C51 142.761 53.2386 145 56 145Z" fill="#548AB5"/>
<path d="M99 34C100.657 34 102 32.6569 102 31C102 29.3431 100.657 28 99 28C97.3431 28 96 29.3431 96 31C96 32.6569 97.3431 34 99 34Z" fill="#548AB5"/>
<path d="M89 6C90.6569 6 92 4.65685 92 3C92 1.34315 90.6569 0 89 0C87.3431 0 86 1.34315 86 3C86 4.65685 87.3431 6 89 6Z" fill="#B0C9DD"/>
</svg>
