<svg width="13" height="13" viewBox="0 0 13 13" fill="none" xmlns="http://www.w3.org/2000/svg">
<path fill-rule="evenodd" clip-rule="evenodd" d="M11.3889 4H1.61111C1.27378 4 1 4.224 1 4.5V5.5C1 5.776 1.27378 6 1.61111 6H11.3889C11.7262 6 12 5.776 12 5.5V4.5C12 4.224 11.7262 4 11.3889 4Z" stroke="#FCE7EA" stroke-linecap="round" stroke-linejoin="round"/>
<path d="M6.5 12V4" stroke="#FCE7EA" stroke-linecap="round" stroke-linejoin="round"/>
<path d="M8.75865 3.20703C8.09989 3.89268 7.06287 4.05523 6.56055 4.05523" stroke="#FCE7EA" stroke-linecap="round" stroke-linejoin="round"/>
<path d="M6.56092 4.05549C6.56092 4.05549 6.25904 2.15133 7.00152 1.37891" stroke="#FCE7EA" stroke-linecap="round" stroke-linejoin="round"/>
<path d="M8.75885 3.20696C9.24405 2.7022 9.24405 1.88333 8.75885 1.37857C8.27364 0.873809 7.48716 0.873809 7.00195 1.37857" stroke="#FCE7EA" stroke-linecap="round" stroke-linejoin="round"/>
<path d="M4.24219 3.20703C4.90095 3.89268 5.93797 4.05523 6.44029 4.05523" stroke="#FCE7EA" stroke-linecap="round" stroke-linejoin="round"/>
<path d="M6.4408 4.05549C6.4408 4.05549 6.74268 2.15133 6.0002 1.37891" stroke="#FCE7EA" stroke-linecap="round" stroke-linejoin="round"/>
<path d="M4.24086 3.20696C3.75565 2.7022 3.75565 1.88333 4.24086 1.37857C4.72607 0.873809 5.51254 0.873809 5.99775 1.37857" stroke="#FCE7EA" stroke-linecap="round" stroke-linejoin="round"/>
<path d="M10.778 6.5V11.3887C10.778 11.7261 10.5042 11.9998 10.1669 11.9998H2.83375C2.49643 11.9998 2.22266 11.7261 2.22266 11.3887V6.5" stroke="#FCE7EA" stroke-linecap="round" stroke-linejoin="round"/>
</svg>
