<svg width="90" height="90" viewBox="0 0 90 90" fill="none" xmlns="http://www.w3.org/2000/svg">
<path d="M45 85V26.8164M76.109 44.9987V80.5544C76.109 83.0077 74.1179 84.9988 71.6647 84.9988H18.3329C15.8796 84.9988 13.8886 83.0077 13.8886 80.5544V44.9987M80.5556 26.8164H9.44444C6.99111 26.8164 5 28.4455 5 30.4528V37.7258C5 39.7331 6.99111 41.3623 9.44444 41.3623H80.5556C83.0089 41.3623 85 39.7331 85 37.7258V30.4528C85 28.4455 83.0089 26.8164 80.5556 26.8164ZM61.4225 21.0508C56.6315 26.0375 49.0895 27.2197 45.4363 27.2197C45.4363 27.2197 43.2418 13.3714 48.6416 7.75359C52.1704 4.08247 57.8943 4.08197 61.4231 7.75309C64.9519 11.4242 64.9513 17.3797 61.4225 21.0508ZM28.5752 21.0508C33.3662 26.0375 40.9082 27.2197 44.5614 27.2197C44.5614 27.2197 46.7564 13.3714 41.3565 7.75359C37.8278 4.08247 32.101 4.08197 28.5722 7.75309C25.0435 11.4242 25.0465 17.3797 28.5752 21.0508Z" stroke="#005091" stroke-width="4" stroke-linecap="round" stroke-linejoin="round"/>
</svg>
