<svg width="13" height="10" viewBox="0 0 13 10" fill="none" xmlns="http://www.w3.org/2000/svg">
<path d="M3.99145 1.42857L0.764399 4.48392C0.603078 4.61789 0.5 4.77544 0.5 5.00015C0.5 5.22406 0.603078 5.38197 0.764399 5.51678L3.99145 8.57106C4.01228 8.59168 4.03206 8.6001 4.04932 8.6001C4.07993 8.6001 4.10085 8.57271 4.10001 8.54103L4.07161 8.48179C3.31422 7.56072 2.76299 6.50418 2.76299 5.0112C2.76299 3.51677 3.31422 2.43957 4.07161 1.51817C4.0908 1.49953 4.09912 1.47874 4.10001 1.4591C4.10085 1.42659 4.07993 1.40003 4.04932 1.40003C4.03206 1.40003 4.01228 1.40844 3.99145 1.42857Z" fill="white"/>
<path d="M6.50572 0.799625C5.20767 0.799625 4.7002 2.72155 4.7002 5.01224C4.7002 7.30377 5.20767 9.19971 6.50572 9.19971C7.28511 9.19971 7.94892 8.72287 7.95131 8.33127C7.95157 8.24567 7.9198 8.1637 7.85097 8.09186C7.48162 7.71944 7.33747 7.34665 7.3366 7.01839C7.33374 6.39081 7.85513 5.92357 8.3354 5.92357C8.99592 5.92357 9.38498 6.46537 9.38498 7.1675C9.38498 7.8329 9.11381 8.38737 8.81867 8.83073L8.80204 8.88682C8.80204 8.92193 8.8217 8.95034 8.85129 8.95034C8.86883 8.95034 8.88987 8.94057 8.91266 8.91632L12.2291 5.56671C12.3947 5.41886 12.5003 5.24568 12.5003 5.00012C12.5003 4.75368 12.3947 4.5809 12.2291 4.43398L8.91266 1.08319C8.88987 1.05985 8.86883 1.04953 8.85129 1.04953C8.8215 1.04953 8.80204 1.07812 8.80204 1.11323L8.81867 1.16951C9.11381 1.61251 9.38498 2.16752 9.38498 2.83232C9.38498 3.53394 8.99592 4.07676 8.3354 4.07676C7.85513 4.07676 7.33374 3.6097 7.3366 2.98197C7.33747 2.65358 7.48162 2.2808 7.85097 1.9082C7.9198 1.83618 7.95157 1.75492 7.95131 1.66879C7.94892 1.27664 7.28511 0.799625 6.50572 0.799625Z" fill="white"/>
</svg>
