<svg width="24" height="24" viewBox="0 0 24 24" fill="none" xmlns="http://www.w3.org/2000/svg">
<path fill-rule="evenodd" clip-rule="evenodd" d="M12 6.43458C9.89775 5.25685 7.53255 4.59407 5.1083 4.50337C4.6897 4.47572 4.27821 4.61914 3.97295 4.8991C3.66768 5.17906 3.49632 5.57017 3.50006 5.97823V16.0774C3.51239 16.8596 4.1453 17.499 4.9485 17.5407C7.43658 17.5705 9.8712 18.247 12 19.5C14.1288 18.247 16.5634 17.5705 19.0515 17.5407C19.8547 17.499 20.4876 16.8596 20.4999 16.0774V5.97823C20.5037 5.57017 20.3323 5.17906 20.0271 4.8991C19.7218 4.61914 19.3103 4.47572 18.8917 4.50337C16.4674 4.59407 14.1022 5.25685 12 6.43458Z" stroke="black" stroke-width="1.5" stroke-linecap="round" stroke-linejoin="round"/>
<path d="M12 7V19" stroke="black" stroke-width="1.5" stroke-linecap="round" stroke-linejoin="round"/>
</svg>
