<svg width="24" height="24" viewBox="0 0 24 24" fill="none" xmlns="http://www.w3.org/2000/svg">
<path fill-rule="evenodd" clip-rule="evenodd" d="M4.444 15.584C4.3367 15.584 4.25 15.6707 4.25 15.778V19.556C4.25 19.6633 4.33673 19.75 4.444 19.75H9.167C9.58121 19.75 9.917 20.0858 9.917 20.5C9.917 20.9142 9.58121 21.25 9.167 21.25H4.444C3.50727 21.25 2.75 20.4907 2.75 19.556V15.778C2.75 14.8413 3.5093 14.084 4.444 14.084H9.166C9.58021 14.084 9.916 14.4198 9.916 14.834C9.916 15.2482 9.58021 15.584 9.166 15.584H4.444Z" fill="black"/>
<path fill-rule="evenodd" clip-rule="evenodd" d="M14.083 4.444C14.083 3.50879 14.8418 2.75 15.777 2.75H19.555C20.4897 2.75 21.249 3.50727 21.249 4.444V19.556C21.249 20.4907 20.4917 21.25 19.555 21.25H14.833C14.4188 21.25 14.083 20.9142 14.083 20.5V4.444ZM15.583 4.444V19.75H19.555C19.6623 19.75 19.749 19.6633 19.749 19.556V4.444C19.749 4.33673 19.6623 4.25 19.555 4.25H15.777C15.6702 4.25 15.583 4.33721 15.583 4.444Z" fill="black"/>
<path fill-rule="evenodd" clip-rule="evenodd" d="M10.11 9.91699C10.0027 9.91699 9.91602 10.0037 9.91602 10.111V19.75H14.833C15.2472 19.75 15.583 20.0858 15.583 20.5C15.583 20.9142 15.2472 21.25 14.833 21.25H9.16602C8.7518 21.25 8.41602 20.9142 8.41602 20.5V10.111C8.41602 9.17426 9.17532 8.41699 10.11 8.41699H14.832C15.2462 8.41699 15.582 8.75278 15.582 9.16699C15.582 9.58121 15.2462 9.91699 14.832 9.91699H10.11Z" fill="black"/>
</svg>
