<svg width="24" height="24" viewBox="0 0 24 24" fill="none" xmlns="http://www.w3.org/2000/svg">
<path fill-rule="evenodd" clip-rule="evenodd" d="M11.7188 5.98584C12.133 5.98584 12.4688 6.32163 12.4688 6.73584V12.6379L17.025 15.3557C17.3807 15.5679 17.4971 16.0283 17.2849 16.3841C17.0727 16.7398 16.6123 16.8561 16.2565 16.644L11.3345 13.708C11.1077 13.5726 10.9688 13.328 10.9688 13.0638V6.73584C10.9688 6.32163 11.3045 5.98584 11.7188 5.98584Z" fill="black"/>
<path fill-rule="evenodd" clip-rule="evenodd" d="M17.8336 6.16637C14.6118 2.94454 9.3882 2.94454 6.16637 6.16637L6.16637 6.16637C2.94454 9.38818 2.94454 14.6118 6.16637 17.8336C9.38818 21.0554 14.6118 21.0554 17.8336 17.8336C21.0553 14.6119 21.0554 9.38857 17.834 6.16671C17.8338 6.1666 17.8337 6.16648 17.8336 6.16637ZM18.8943 5.10571C22.7019 8.91332 22.7019 15.0867 18.8943 18.8943C15.0867 22.7019 8.9133 22.7019 5.10571 18.8943C1.2981 15.0867 1.2981 8.9133 5.10571 5.10571C8.91332 1.2981 15.0867 1.2981 18.8943 5.10571Z" fill="black"/>
</svg>
