<svg width="24" height="24" viewBox="0 0 24 24" fill="none" xmlns="http://www.w3.org/2000/svg">
<path fill-rule="evenodd" clip-rule="evenodd" d="M3.99414 9.55986C3.7838 9.76707 3.74609 9.91503 3.74609 9.99909C3.74609 10.0831 3.7838 10.2311 3.99414 10.4383C4.20711 10.6481 4.55377 10.8716 5.04265 11.0753C6.01712 11.4813 7.41532 11.7501 8.99859 11.7501C10.5819 11.7501 11.9801 11.4813 12.9545 11.0753C13.4434 10.8716 13.7901 10.6481 14.003 10.4383C14.2134 10.2311 14.2511 10.0831 14.2511 9.99909C14.2511 9.91503 14.2134 9.76707 14.003 9.55986C13.7901 9.35006 13.4434 9.12659 12.9545 8.92289C11.9801 8.51686 10.5819 8.24805 8.99859 8.24805C7.41532 8.24805 6.01712 8.51686 5.04265 8.92289C4.55377 9.12659 4.20711 9.35006 3.99414 9.55986ZM4.46572 7.53828C5.66373 7.03911 7.26678 6.74805 8.99859 6.74805C10.7304 6.74805 12.3335 7.03911 13.5315 7.53828C14.1288 7.78718 14.6612 8.10264 15.0557 8.49128C15.4529 8.88252 15.7511 9.3925 15.7511 9.99909C15.7511 10.6057 15.4529 11.1157 15.0557 11.5069C14.6612 11.8955 14.1288 12.211 13.5315 12.4599C12.3335 12.9591 10.7304 13.2501 8.99859 13.2501C7.26678 13.2501 5.66373 12.9591 4.46572 12.4599C3.86836 12.211 3.33597 11.8955 2.94146 11.5069C2.54431 11.1157 2.24609 10.6057 2.24609 9.99909C2.24609 9.3925 2.54431 8.88252 2.94146 8.49128C3.33597 8.10264 3.86836 7.78718 4.46572 7.53828Z" fill="black"/>
<path fill-rule="evenodd" clip-rule="evenodd" d="M2.99609 12.7505C3.41031 12.7505 3.74609 13.0863 3.74609 13.5005C3.74609 13.5845 3.7838 13.7325 3.99414 13.9397C4.20711 14.1495 4.55377 14.373 5.04265 14.5767C6.01712 14.9827 7.41532 15.2515 8.99859 15.2515C10.5819 15.2515 11.9801 14.9827 12.9545 14.5767C13.4434 14.373 13.7901 14.1495 14.003 13.9397C14.2134 13.7325 14.2511 13.5845 14.2511 13.5005C14.2511 13.0863 14.5869 12.7505 15.0011 12.7505C15.4153 12.7505 15.7511 13.0863 15.7511 13.5005C15.7511 14.1071 15.4529 14.6171 15.0557 15.0083C14.6612 15.3969 14.1288 15.7124 13.5315 15.9613C12.3335 16.4605 10.7304 16.7515 8.99859 16.7515C7.26678 16.7515 5.66373 16.4605 4.46572 15.9613C3.86836 15.7124 3.33597 15.3969 2.94146 15.0083C2.54431 14.6171 2.24609 14.1071 2.24609 13.5005C2.24609 13.0863 2.58188 12.7505 2.99609 12.7505Z" fill="black"/>
<path fill-rule="evenodd" clip-rule="evenodd" d="M21.0035 9.24902C21.4177 9.24902 21.7535 9.58481 21.7535 9.99902C21.7535 10.6056 21.4553 11.1156 21.0581 11.5068C20.6636 11.8955 20.1312 12.2109 19.5338 12.4598C18.3358 12.959 16.7328 13.2501 15.001 13.2501C14.5868 13.2501 14.251 12.9143 14.251 12.5001C14.251 12.0859 14.5868 11.7501 15.001 11.7501C16.5842 11.7501 17.9825 11.4812 18.9569 11.0752C19.4458 10.8715 19.7925 10.6481 20.0054 10.4382C20.2158 10.231 20.2535 10.0831 20.2535 9.99902C20.2535 9.58481 20.5893 9.24902 21.0035 9.24902Z" fill="black"/>
<path fill-rule="evenodd" clip-rule="evenodd" d="M2.99609 9.24902C3.41031 9.24902 3.74609 9.58481 3.74609 9.99902V17.5021C3.74609 17.5862 3.7838 17.7342 3.99414 17.9414C4.20711 18.1512 4.55377 18.3746 5.04265 18.5783C6.01712 18.9844 7.41532 19.2532 8.99859 19.2532C10.5819 19.2532 11.9801 18.9844 12.9545 18.5783C13.4434 18.3746 13.7901 18.1512 14.0031 17.9414C14.2134 17.7342 14.2511 17.5862 14.2511 17.5021V9.99902C14.2511 9.58481 14.5869 9.24902 15.0011 9.24902C15.4153 9.24902 15.7511 9.58481 15.7511 9.99902V17.5021C15.7511 18.1087 15.4529 18.6187 15.0557 19.01C14.6612 19.3986 14.1288 19.7141 13.5315 19.963C12.3335 20.4621 10.7304 20.7532 8.99859 20.7532C7.26678 20.7532 5.66373 20.4621 4.46572 19.963C3.86836 19.7141 3.33597 19.3986 2.94146 19.01C2.54431 18.6187 2.24609 18.1087 2.24609 17.5021V9.99902C2.24609 9.58481 2.58188 9.24902 2.99609 9.24902Z" fill="black"/>
<path fill-rule="evenodd" clip-rule="evenodd" d="M21.0035 5.74756C21.4177 5.74756 21.7535 6.08335 21.7535 6.49756V14.0007C21.7535 14.6073 21.4553 15.1173 21.0581 15.5085C20.6636 15.8971 20.1312 16.2126 19.5338 16.4615C18.3358 16.9607 16.7328 17.2517 15.001 17.2517C14.5868 17.2517 14.251 16.9159 14.251 16.5017C14.251 16.0875 14.5868 15.7517 15.001 15.7517C16.5842 15.7517 17.9825 15.4829 18.9569 15.0769C19.4458 14.8732 19.7925 14.6497 20.0054 14.4399C20.2158 14.2327 20.2535 14.0847 20.2535 14.0007V6.49756C20.2535 6.08335 20.5893 5.74756 21.0035 5.74756Z" fill="black"/>
<path fill-rule="evenodd" clip-rule="evenodd" d="M9.74915 6.47888C9.75474 6.3929 9.80102 6.25166 9.99682 6.05898C10.2101 5.84907 10.5572 5.6255 11.0464 5.42172C12.0215 5.01553 13.4198 4.74658 15.001 4.74658C16.5823 4.74658 17.9806 5.01553 18.9556 5.42172C19.4448 5.6255 19.7919 5.84907 20.0053 6.05898C20.216 6.26638 20.2535 6.41419 20.2535 6.49762C20.2535 6.58106 20.216 6.72887 20.0053 6.93627C19.7919 7.14618 19.4448 7.36974 18.9556 7.57353C17.9806 7.97972 16.5823 8.24867 15.001 8.24867C14.826 8.24867 14.6801 8.2484 14.5476 8.24012C14.1342 8.21428 13.7781 8.52847 13.7523 8.94188C13.7264 9.35528 14.0406 9.71136 14.454 9.7372C14.6377 9.74868 14.8276 9.74867 14.9904 9.74867H15.001C16.7312 9.74867 18.3341 9.45738 19.5325 8.95819C20.13 8.70929 20.6626 8.39388 21.0574 8.00541C21.4547 7.61444 21.7535 7.10448 21.7535 6.49762C21.7535 5.89077 21.4547 5.38081 21.0574 4.98983C20.6626 4.60137 20.13 4.28596 19.5325 4.03706C18.3341 3.53787 16.7312 3.24658 15.001 3.24658C13.2709 3.24658 11.6679 3.53787 10.4696 4.03706C9.8721 4.28596 9.33946 4.60137 8.94471 4.98983C8.54741 5.38081 8.24854 5.89077 8.24854 6.49762C8.24854 6.5121 8.24895 6.52658 8.24979 6.54104C8.28423 7.13507 8.55874 7.68956 9.01024 8.07713C9.32454 8.34693 9.79804 8.31085 10.0678 7.99655C10.3376 7.68225 10.3015 7.20875 9.98725 6.93896C9.85104 6.82203 9.76588 6.65697 9.74915 6.47888Z" fill="black"/>
</svg>
