<svg width="24" height="24" viewBox="0 0 24 24" fill="none" xmlns="http://www.w3.org/2000/svg">
<path fill-rule="evenodd" clip-rule="evenodd" d="M3 5.75C2.86221 5.75 2.75 5.86221 2.75 6V8.54443C3.98154 9.25186 4.75 10.5671 4.75 12C4.75 13.4326 3.98269 14.7481 2.75 15.4557V18C2.75 18.1378 2.86221 18.25 3 18.25H21C21.1378 18.25 21.25 18.1378 21.25 18V15.4561C20.0176 14.7485 19.25 13.4319 19.25 12C19.25 10.569 20.0167 9.25292 21.25 8.54496V6C21.25 5.86221 21.1378 5.75 21 5.75H3ZM2.211 14.894L1.87583 14.2231C2.71846 13.8021 3.25 12.942 3.25 12C3.25 11.0583 2.71773 10.1979 1.87559 9.77682L2.21099 9.10601L1.87351 9.77578C1.49328 9.58419 1.25 9.19415 1.25 8.764V6C1.25 5.03379 2.03379 4.25 3 4.25H21C21.9662 4.25 22.75 5.03379 22.75 6V8.764C22.75 9.19178 22.5094 9.57988 22.1328 9.77259L22.0925 9.79366L22.0903 9.79478C21.2669 10.2218 20.75 11.0721 20.75 12C20.75 12.9339 21.2735 13.7889 22.1038 14.2132C22.1114 14.2168 22.119 14.2204 22.1265 14.2242C22.5067 14.4158 22.75 14.8058 22.75 15.236V18C22.75 18.9662 21.9662 19.75 21 19.75H3C2.03379 19.75 1.25 18.9662 1.25 18V15.236C1.25 14.8058 1.49328 14.4158 1.87351 14.2242L2.211 14.894Z" fill="black"/>
<path fill-rule="evenodd" clip-rule="evenodd" d="M14.9605 9.03974C15.2534 9.33263 15.2534 9.80751 14.9605 10.1004L9.96051 15.1004C9.66761 15.3933 9.19274 15.3933 8.89985 15.1004C8.60695 14.8075 8.60695 14.3326 8.89985 14.0397L13.8998 9.03974C14.1927 8.74685 14.6676 8.74685 14.9605 9.03974Z" fill="black"/>
<path fill-rule="evenodd" clip-rule="evenodd" d="M12.75 14.5055C12.753 15.4694 13.5354 16.25 14.5 16.25C15.4664 16.25 16.25 15.4664 16.25 14.5C16.25 13.5297 15.4625 12.75 14.499 12.75C13.5365 12.75 12.7459 13.531 12.75 14.5055ZM14.25 14.5C14.249 14.362 14.361 14.25 14.499 14.25C14.4993 14.25 14.4997 14.25 14.5 14.25C14.6373 14.2505 14.748 14.3604 14.75 14.4964C14.75 14.4976 14.75 14.4988 14.75 14.5C14.75 14.638 14.638 14.75 14.5 14.75C14.4997 14.75 14.4993 14.75 14.499 14.75C14.3615 14.7495 14.25 14.6377 14.25 14.5Z" fill="black"/>
<path fill-rule="evenodd" clip-rule="evenodd" d="M7.75002 9.5055C7.75298 10.4694 8.53541 11.25 9.50001 11.25C10.4664 11.25 11.25 10.4664 11.25 9.5C11.25 8.52967 10.4625 7.75 9.49901 7.75C8.53647 7.75 7.74587 8.53099 7.75002 9.5055ZM9.25001 9.5C9.24901 9.362 9.36101 9.25 9.49901 9.25C9.49934 9.25 9.49967 9.25 9.50001 9.25C9.63733 9.25053 9.74805 9.36038 9.74998 9.49638C9.75 9.49758 9.75001 9.49879 9.75001 9.5C9.75001 9.638 9.63801 9.75 9.50001 9.75C9.49967 9.75 9.49934 9.75 9.49901 9.75C9.36147 9.74946 9.25001 9.63767 9.25001 9.5Z" fill="black"/>
</svg>
