<svg width="41" height="40" viewBox="0 0 41 40" fill="none" xmlns="http://www.w3.org/2000/svg">
<path d="M20.5 40C31.5457 40 40.5 31.0457 40.5 20C40.5 8.95431 31.5457 0 20.5 0C9.45431 0 0.5 8.95431 0.5 20C0.5 31.0457 9.45431 40 20.5 40Z" fill="#FFDD67"/>
<path d="M12.8333 20.3991C14.6743 20.3991 16.1667 18.9067 16.1667 17.0658C16.1667 15.2248 14.6743 13.7324 12.8333 13.7324C10.9924 13.7324 9.5 15.2248 9.5 17.0658C9.5 18.9067 10.9924 20.3991 12.8333 20.3991Z" fill="#00223D"/>
<path d="M28.1673 20.3991C30.0083 20.3991 31.5007 18.9067 31.5007 17.0658C31.5007 15.2248 30.0083 13.7324 28.1673 13.7324C26.3264 13.7324 24.834 15.2248 24.834 17.0658C24.834 18.9067 26.3264 20.3991 28.1673 20.3991Z" fill="#00223D"/>
<path d="M25.1004 30.6667H15.9004C14.9004 30.6667 14.9004 28 15.9004 28H25.0337C26.1004 28 26.1004 30.6667 25.1004 30.6667Z" fill="#00223D"/>
</svg>
