<svg width="41" height="40" viewBox="0 0 41 40" fill="none" xmlns="http://www.w3.org/2000/svg">
<path d="M40.4992 20.0129C40.4992 31.0726 31.5752 40.0004 20.5201 40.0004C9.46501 40.0004 0.541016 31.0726 0.541016 20.0129C0.541016 8.95314 9.46501 0.0253906 20.5201 0.0253906C31.5752 0.0253906 40.4992 8.95314 40.4992 20.0129Z" fill="#FFDD67"/>
<path d="M40.367 7.48658C40.034 5.6877 39.035 4.22195 37.3701 3.75558C35.572 3.2892 33.9737 3.95545 32.4419 5.55445C31.5762 3.15595 30.2442 1.35708 28.1131 0.42433C25.982 -0.50842 23.8509 0.15783 22.519 1.82345C21.1204 3.5557 20.5877 6.28733 22.0528 9.81845C23.4513 13.1497 29.6449 19.8122 29.8447 20.0121C30.111 19.8788 37.0371 15.5482 38.7021 13.4162C40.367 11.3508 40.7 9.28545 40.367 7.48658ZM18.5232 1.82345C17.1912 0.15783 15.0601 -0.50842 12.929 0.42433C10.7979 1.35708 9.46597 3.15595 8.60021 5.55445C7.00188 4.02208 5.40355 3.2892 3.60543 3.8222C2.0071 4.28858 0.94155 5.75433 0.608565 7.5532C0.27558 9.28545 0.675162 11.4175 2.27349 13.4828C4.00501 15.5482 10.9311 19.8788 11.1975 20.0121C11.3973 19.8122 17.5908 13.1497 18.9893 9.81845C20.4545 6.28733 19.9217 3.62233 18.5232 1.82345Z" fill="#F7525F"/>
<path d="M31.8422 24.0758C31.8422 23.5428 31.5092 22.8765 30.6435 22.6767C28.3126 22.2103 24.9161 21.8105 20.5207 21.8105C16.1253 21.8105 12.7289 22.2769 10.398 22.6767C9.46561 22.8765 9.19922 23.5428 9.19922 24.0758C9.19922 28.9394 12.9287 33.803 20.5207 33.803C28.1128 33.7364 31.8422 28.8728 31.8422 24.0758Z" fill="#00223D"/>
<path d="M28.9783 24.2092C27.5132 23.9427 24.4497 23.543 20.5205 23.543C16.5912 23.543 13.5278 23.9427 12.0627 24.2092C11.1969 24.3425 11.1303 24.6756 11.1969 25.2086C11.2635 25.4751 11.2635 25.8748 11.3967 26.2746C11.4633 26.6743 11.5965 26.8742 12.2624 26.8076C13.5278 26.6743 27.5798 26.6743 28.8451 26.8076C29.5111 26.8742 29.5777 26.6743 29.7109 26.2746C29.7775 25.8748 29.8441 25.5417 29.9106 25.2086C29.9106 24.6756 29.8441 24.3425 28.9783 24.2092Z" fill="white"/>
</svg>
