<svg width="41" height="40" viewBox="0 0 41 40" fill="none" xmlns="http://www.w3.org/2000/svg">
<path d="M20.5 40C31.5457 40 40.5 31.0457 40.5 20C40.5 8.95431 31.5457 0 20.5 0C9.45431 0 0.5 8.95431 0.5 20C0.5 31.0457 9.45431 40 20.5 40Z" fill="#FFDD67"/>
<path opacity="0.8" d="M33.0326 28.0007C35.9781 28.0007 38.3659 25.6128 38.3659 22.6673C38.3659 19.7218 35.9781 17.334 33.0326 17.334C30.087 17.334 27.6992 19.7218 27.6992 22.6673C27.6992 25.6128 30.087 28.0007 33.0326 28.0007Z" fill="#F7525F"/>
<path opacity="0.8" d="M7.96615 28.0007C10.9117 28.0007 13.2995 25.6128 13.2995 22.6673C13.2995 19.7218 10.9117 17.334 7.96615 17.334C5.02063 17.334 2.63281 19.7218 2.63281 22.6673C2.63281 25.6128 5.02063 28.0007 7.96615 28.0007Z" fill="#F7525F"/>
<path d="M28.8999 25.5333C23.4999 29.3333 17.4999 29.2667 12.0999 25.5333C11.4332 25.0667 10.8999 25.8667 11.2999 26.6C12.9666 29.2667 16.2332 31.7333 20.4999 31.7333C24.7666 31.7333 28.0332 29.3333 29.6999 26.6C30.0999 25.8667 29.5666 25.0667 28.8999 25.5333Z" fill="#00223D"/>
<path d="M18.1658 16.6001C16.8992 13.2001 15.0325 11.4668 13.1658 11.4668C11.2992 11.4668 9.43249 13.2001 8.16583 16.6001C8.03249 16.9335 8.69916 17.5335 9.03249 17.2001C10.2325 15.9335 11.6992 15.4001 13.1658 15.4001C14.6325 15.4001 16.0992 15.9335 17.2992 17.2001C17.6992 17.5335 18.2992 16.9335 18.1658 16.6001Z" fill="#00223D"/>
<path d="M32.7654 16.6001C31.4988 13.2001 29.6321 11.4668 27.7654 11.4668C25.8988 11.4668 24.0321 13.2001 22.7654 16.6001C22.6321 16.9335 23.2988 17.5335 23.6321 17.2001C24.8321 15.9335 26.2988 15.4001 27.7654 15.4001C29.2321 15.4001 30.6988 15.9335 31.8988 17.2001C32.2321 17.5335 32.8988 16.9335 32.7654 16.6001Z" fill="#00223D"/>
</svg>
