<svg width="41" height="40" viewBox="0 0 41 40" fill="none" xmlns="http://www.w3.org/2000/svg">
<path d="M20.5 40C31.5457 40 40.5 31.0457 40.5 20C40.5 8.95431 31.5457 0 20.5 0C9.45431 0 0.5 8.95431 0.5 20C0.5 31.0457 9.45431 40 20.5 40Z" fill="#FFDD67"/>
<path d="M12.8333 19.734C14.6743 19.734 16.1667 18.2417 16.1667 16.4007C16.1667 14.5598 14.6743 13.0674 12.8333 13.0674C10.9924 13.0674 9.5 14.5598 9.5 16.4007C9.5 18.2417 10.9924 19.734 12.8333 19.734Z" fill="#00223D"/>
<path d="M28.1673 19.734C30.0083 19.734 31.5007 18.2417 31.5007 16.4007C31.5007 14.5598 30.0083 13.0674 28.1673 13.0674C26.3264 13.0674 24.834 14.5598 24.834 16.4007C24.834 18.2417 26.3264 19.734 28.1673 19.734Z" fill="#00223D"/>
<path d="M28.8999 25.5343C23.4999 29.3343 17.4999 29.2676 12.0999 25.5343C11.4332 25.0676 10.8999 25.8676 11.2999 26.601C12.9666 29.2676 16.2332 31.7343 20.4999 31.7343C24.7666 31.7343 28.0332 29.3343 29.6999 26.601C30.0999 25.8676 29.5666 25.0676 28.8999 25.5343Z" fill="#00223D"/>
</svg>
