<svg width="73" height="49" viewBox="0 0 73 49" fill="none" xmlns="http://www.w3.org/2000/svg">
<path d="M21.6205 2.07027L1.76363 21.2583C0.770985 22.0996 0.136719 23.089 0.136719 24.5002C0.136719 25.9064 0.770985 26.8981 1.76363 27.7448L21.6205 46.926C21.7486 47.0555 21.8703 47.1084 21.9766 47.1084C22.1649 47.1084 22.2937 46.9364 22.2885 46.7374L22.1138 46.3654C17.4533 40.581 14.0615 33.9458 14.0615 24.5696C14.0615 15.1844 17.4533 8.41946 22.1138 2.63296C22.2318 2.51586 22.283 2.3853 22.2885 2.26198C22.2937 2.05783 22.1649 1.891 21.9766 1.891C21.8703 1.891 21.7486 1.94385 21.6205 2.07027Z" fill="white"/>
<path d="M36.8865 0.5C29.0963 0.5 26.0508 11.4823 26.0508 24.5719C26.0508 37.6662 29.0963 48.5 36.8865 48.5C41.564 48.5 45.5478 45.7753 45.5621 43.5375C45.5637 43.0484 45.373 42.58 44.9599 42.1695C42.7433 40.0414 41.8782 37.9112 41.873 36.0354C41.8558 32.4493 44.9849 29.7794 47.8672 29.7794C51.8312 29.7794 54.1662 32.8754 54.1662 36.8875C54.1662 40.6897 52.5387 43.8581 50.7675 46.3916L50.6677 46.7121C50.6677 46.9127 50.7857 47.0751 50.9633 47.0751C51.0685 47.0751 51.1948 47.0192 51.3316 46.8807L71.2349 27.7402C72.2288 26.8954 72.8624 25.9058 72.8624 24.5026C72.8624 23.0944 72.2288 22.1071 71.2349 21.2675L51.3316 2.12037C51.1948 1.98698 51.0685 1.92803 50.9633 1.92803C50.7845 1.92803 50.6677 2.09141 50.6677 2.29202L50.7675 2.61362C52.5387 5.145 54.1662 8.31645 54.1662 12.1153C54.1662 16.1245 51.8312 19.2263 47.8672 19.2263C44.9849 19.2263 41.8558 16.5574 41.873 12.9704C41.8782 11.0939 42.7433 8.96377 44.9599 6.83464C45.373 6.42308 45.5637 5.95879 45.5621 5.46658C45.5478 3.22578 41.564 0.5 36.8865 0.5Z" fill="white"/>
</svg>
