<svg width="24" height="24" viewBox="0 0 24 24" fill="none" xmlns="http://www.w3.org/2000/svg">
<path fill-rule="evenodd" clip-rule="evenodd" d="M7.5 8.33008C7.91421 8.33008 8.25 8.66586 8.25 9.08008V10.5801C8.25 10.9943 7.91421 11.3301 7.5 11.3301C7.08579 11.3301 6.75 10.9943 6.75 10.5801V9.08008C6.75 8.66586 7.08579 8.33008 7.5 8.33008Z" fill="black"/>
<path fill-rule="evenodd" clip-rule="evenodd" d="M16.5 8.33008C16.9142 8.33008 17.25 8.66586 17.25 9.08008V10.5801C17.25 10.9943 16.9142 11.3301 16.5 11.3301C16.0858 11.3301 15.75 10.9943 15.75 10.5801V9.08008C15.75 8.66586 16.0858 8.33008 16.5 8.33008Z" fill="black"/>
<path fill-rule="evenodd" clip-rule="evenodd" d="M12.5 8.34692C12.9142 8.34692 13.25 8.68271 13.25 9.09692V12.5969C13.25 13.5631 12.4662 14.3469 11.5 14.3469H11C10.5858 14.3469 10.25 14.0111 10.25 13.5969C10.25 13.1827 10.5858 12.8469 11 12.8469H11.5C11.6378 12.8469 11.75 12.7347 11.75 12.5969V9.09692C11.75 8.68271 12.0858 8.34692 12.5 8.34692Z" fill="black"/>
<path fill-rule="evenodd" clip-rule="evenodd" d="M8.22846 15.6267C8.52135 15.3338 8.99623 15.3338 9.28912 15.6267C10.7862 17.1238 13.2144 17.1238 14.7115 15.6267C15.0044 15.3338 15.4792 15.3338 15.7721 15.6267C16.065 15.9195 16.065 16.3944 15.7721 16.6873C13.6892 18.7702 10.3114 18.7702 8.22846 16.6873C7.93557 16.3944 7.93557 15.9195 8.22846 15.6267Z" fill="black"/>
<path fill-rule="evenodd" clip-rule="evenodd" d="M2.25 5C2.25 3.48079 3.48079 2.25 5 2.25H7.588C8.00221 2.25 8.338 2.58579 8.338 3C8.338 3.41421 8.00221 3.75 7.588 3.75H5C4.30921 3.75 3.75 4.30921 3.75 5V7.588C3.75 8.00221 3.41421 8.338 3 8.338C2.58579 8.338 2.25 8.00221 2.25 7.588V5Z" fill="black"/>
<path fill-rule="evenodd" clip-rule="evenodd" d="M21.0001 15.6621C21.4143 15.6621 21.7501 15.9979 21.7501 16.4121V19.0001C21.7501 20.5193 20.5193 21.7501 19.0001 21.7501H16.4121C15.9979 21.7501 15.6621 21.4143 15.6621 21.0001C15.6621 20.5859 15.9979 20.2501 16.4121 20.2501H19.0001C19.6909 20.2501 20.2501 19.6909 20.2501 19.0001V16.4121C20.2501 15.9979 20.5859 15.6621 21.0001 15.6621Z" fill="black"/>
<path fill-rule="evenodd" clip-rule="evenodd" d="M3 15.6621C3.41421 15.6621 3.75 15.9979 3.75 16.4121V19.0001C3.75 19.6909 4.30921 20.2501 5 20.2501H7.588C8.00221 20.2501 8.338 20.5859 8.338 21.0001C8.338 21.4143 8.00221 21.7501 7.588 21.7501H5C3.48079 21.7501 2.25 20.5193 2.25 19.0001V16.4121C2.25 15.9979 2.58579 15.6621 3 15.6621Z" fill="black"/>
<path fill-rule="evenodd" clip-rule="evenodd" d="M15.6621 3C15.6621 2.58579 15.9979 2.25 16.4121 2.25H19.0001C20.5193 2.25 21.7501 3.48079 21.7501 5V7.588C21.7501 8.00221 21.4143 8.338 21.0001 8.338C20.5859 8.338 20.2501 8.00221 20.2501 7.588V5C20.2501 4.30921 19.6909 3.75 19.0001 3.75H16.4121C15.9979 3.75 15.6621 3.41421 15.6621 3Z" fill="black"/>
</svg>
