<svg width="24" height="24" viewBox="0 0 24 24" fill="none" xmlns="http://www.w3.org/2000/svg">
<path d="M11.9998 2.28516C6.61518 2.28516 2.25 6.65034 2.25 12.035C2.25 16.6072 5.39802 20.444 9.64464 21.4977V15.0145H7.63423V12.035H9.64464V10.7511C9.64464 7.43266 11.1465 5.89453 14.4045 5.89453C15.0222 5.89453 16.0881 6.01582 16.5241 6.13672V8.83741C16.294 8.81324 15.8943 8.80115 15.3978 8.80115C13.7992 8.80115 13.1815 9.4068 13.1815 10.9812V12.035H16.3662L15.819 15.0145H13.1815V21.7134C18.0092 21.1304 21.75 17.0198 21.75 12.035C21.7496 6.65034 17.3844 2.28516 11.9998 2.28516Z" fill="#005091"/>
</svg>
