<svg width="24" height="24" viewBox="0 0 24 24" fill="none" xmlns="http://www.w3.org/2000/svg">
<path fill-rule="evenodd" clip-rule="evenodd" d="M2.25 8.5C2.25 7.25736 3.25736 6.25 4.5 6.25H19.5C20.7426 6.25 21.75 7.25736 21.75 8.5V9.5C21.75 10.7426 20.7426 11.75 19.5 11.75H14C13.5858 11.75 13.25 11.4142 13.25 11C13.25 10.5858 13.5858 10.25 14 10.25H19.5C19.9142 10.25 20.25 9.91421 20.25 9.5V8.5C20.25 8.08579 19.9142 7.75 19.5 7.75H4.5C4.08579 7.75 3.75 8.08579 3.75 8.5V9.5C3.75 9.91421 4.08579 10.25 4.5 10.25H10C10.4142 10.25 10.75 10.5858 10.75 11C10.75 11.4142 10.4142 11.75 10 11.75H4.5C3.25736 11.75 2.25 10.7426 2.25 9.5V8.5Z" fill="#004984"/>
<path fill-rule="evenodd" clip-rule="evenodd" d="M4 10.25C4.41421 10.25 4.75 10.5858 4.75 11V19C4.75 19.6904 5.30964 20.25 6 20.25H18C18.6904 20.25 19.25 19.6904 19.25 19V11C19.25 10.5858 19.5858 10.25 20 10.25C20.4142 10.25 20.75 10.5858 20.75 11V19C20.75 20.5188 19.5188 21.75 18 21.75H6C4.48122 21.75 3.25 20.5188 3.25 19V11C3.25 10.5858 3.58579 10.25 4 10.25Z" fill="#004984"/>
<path fill-rule="evenodd" clip-rule="evenodd" d="M10 3.75C9.30964 3.75 8.75 4.30964 8.75 5C8.75 5.69036 9.30964 6.25 10 6.25H11.25V5C11.25 4.30964 10.6904 3.75 10 3.75ZM7.25 5C7.25 3.48122 8.48122 2.25 10 2.25C11.5188 2.25 12.75 3.48122 12.75 5V7C12.75 7.41421 12.4142 7.75 12 7.75H10C8.48122 7.75 7.25 6.51878 7.25 5Z" fill="#004984"/>
<path fill-rule="evenodd" clip-rule="evenodd" d="M14 3.75C13.3096 3.75 12.75 4.30964 12.75 5V6.25H14C14.6904 6.25 15.25 5.69036 15.25 5C15.25 4.30964 14.6904 3.75 14 3.75ZM11.25 5C11.25 3.48122 12.4812 2.25 14 2.25C15.5188 2.25 16.75 3.48122 16.75 5C16.75 6.51878 15.5188 7.75 14 7.75H12C11.5858 7.75 11.25 7.41421 11.25 7V5Z" fill="#004984"/>
<path fill-rule="evenodd" clip-rule="evenodd" d="M9.25 8C9.25 7.0335 10.0335 6.25 11 6.25H13C13.9665 6.25 14.75 7.0335 14.75 8V20C14.75 20.9665 13.9665 21.75 13 21.75H11C10.0335 21.75 9.25 20.9665 9.25 20V8ZM11 7.75C10.8619 7.75 10.75 7.86193 10.75 8V20C10.75 20.1381 10.8619 20.25 11 20.25H13C13.1381 20.25 13.25 20.1381 13.25 20V8C13.25 7.86193 13.1381 7.75 13 7.75H11Z" fill="#004984"/>
</svg>
