<svg width="25" height="24" viewBox="0 0 25 24" fill="none" xmlns="http://www.w3.org/2000/svg">
<path fill-rule="evenodd" clip-rule="evenodd" d="M2.75 8.5C2.75 7.25736 3.75736 6.25 5 6.25H20C21.2426 6.25 22.25 7.25736 22.25 8.5V9.5C22.25 10.7426 21.2426 11.75 20 11.75H14.5C14.0858 11.75 13.75 11.4142 13.75 11C13.75 10.5858 14.0858 10.25 14.5 10.25H20C20.4142 10.25 20.75 9.91421 20.75 9.5V8.5C20.75 8.08579 20.4142 7.75 20 7.75H5C4.58579 7.75 4.25 8.08579 4.25 8.5V9.5C4.25 9.91421 4.58579 10.25 5 10.25H10.5C10.9142 10.25 11.25 10.5858 11.25 11C11.25 11.4142 10.9142 11.75 10.5 11.75H5C3.75736 11.75 2.75 10.7426 2.75 9.5V8.5Z" fill="white"/>
<path fill-rule="evenodd" clip-rule="evenodd" d="M4.5 10.25C4.91421 10.25 5.25 10.5858 5.25 11V19C5.25 19.6904 5.80964 20.25 6.5 20.25H18.5C19.1904 20.25 19.75 19.6904 19.75 19V11C19.75 10.5858 20.0858 10.25 20.5 10.25C20.9142 10.25 21.25 10.5858 21.25 11V19C21.25 20.5188 20.0188 21.75 18.5 21.75H6.5C4.98122 21.75 3.75 20.5188 3.75 19V11C3.75 10.5858 4.08579 10.25 4.5 10.25Z" fill="white"/>
<path fill-rule="evenodd" clip-rule="evenodd" d="M10.5 3.75C9.80964 3.75 9.25 4.30964 9.25 5C9.25 5.69036 9.80964 6.25 10.5 6.25H11.75V5C11.75 4.30964 11.1904 3.75 10.5 3.75ZM7.75 5C7.75 3.48122 8.98122 2.25 10.5 2.25C12.0188 2.25 13.25 3.48122 13.25 5V7C13.25 7.41421 12.9142 7.75 12.5 7.75H10.5C8.98122 7.75 7.75 6.51878 7.75 5Z" fill="white"/>
<path fill-rule="evenodd" clip-rule="evenodd" d="M14.5 3.75C13.8096 3.75 13.25 4.30964 13.25 5V6.25H14.5C15.1904 6.25 15.75 5.69036 15.75 5C15.75 4.30964 15.1904 3.75 14.5 3.75ZM11.75 5C11.75 3.48122 12.9812 2.25 14.5 2.25C16.0188 2.25 17.25 3.48122 17.25 5C17.25 6.51878 16.0188 7.75 14.5 7.75H12.5C12.0858 7.75 11.75 7.41421 11.75 7V5Z" fill="white"/>
<path fill-rule="evenodd" clip-rule="evenodd" d="M9.75 8C9.75 7.0335 10.5335 6.25 11.5 6.25H13.5C14.4665 6.25 15.25 7.0335 15.25 8V20C15.25 20.9665 14.4665 21.75 13.5 21.75H11.5C10.5335 21.75 9.75 20.9665 9.75 20V8ZM11.5 7.75C11.3619 7.75 11.25 7.86193 11.25 8V20C11.25 20.1381 11.3619 20.25 11.5 20.25H13.5C13.6381 20.25 13.75 20.1381 13.75 20V8C13.75 7.86193 13.6381 7.75 13.5 7.75H11.5Z" fill="white"/>
</svg>
