<svg width="133" height="145" viewBox="0 0 133 145" fill="none" xmlns="http://www.w3.org/2000/svg">
<rect x="22.5" y="45" width="78" height="78" rx="39" fill="#005091"/>
<rect x="22.5" y="45" width="78" height="78" rx="39" stroke="#8AAFCC" stroke-width="2"/>
<path d="M61.5 100V76.7265M73.9436 83.9995V98.2217C73.9436 99.2031 73.1472 99.9995 72.1659 99.9995H50.8332C49.8519 99.9995 49.0554 99.2031 49.0554 98.2217V83.9995M75.7222 76.7265H47.2778C46.2964 76.7265 45.5 77.3782 45.5 78.1811V81.0903C45.5 81.8933 46.2964 82.5449 47.2778 82.5449H75.7222C76.7036 82.5449 77.5 81.8933 77.5 81.0903V78.1811C77.5 77.3782 76.7036 76.7265 75.7222 76.7265ZM68.069 74.4203C66.1526 76.415 63.1358 76.8879 61.6745 76.8879C61.6745 76.8879 60.7967 71.3486 62.9566 69.1014C64.3682 67.633 66.6577 67.6328 68.0693 69.1012C69.4808 70.5697 69.4805 72.9519 68.069 74.4203ZM54.9301 74.4203C56.8465 76.415 59.8633 76.8879 61.3246 76.8879C61.3246 76.8879 62.2026 71.3486 60.0426 69.1014C58.6311 67.633 56.3404 67.6328 54.9289 69.1012C53.5174 70.5697 53.5186 72.9519 54.9301 74.4203Z" stroke="#E6EEF4" stroke-width="3" stroke-linecap="round" stroke-linejoin="round"/>
<circle cx="5.5" cy="34" r="5" fill="#548AB5"/>
<circle cx="127.5" cy="70" r="5" fill="#8AAFCC"/>
<circle cx="13" cy="113.5" r="7.5" fill="#E6EEF4"/>
<circle cx="44.5" cy="140" r="5" fill="#548AB5"/>
<circle cx="87.5" cy="31" r="3" fill="#548AB5"/>
<circle cx="77.5" cy="3" r="3" fill="#B0C9DD"/>
</svg>
