<svg width="24" height="24" viewBox="0 0 24 24" fill="none" xmlns="http://www.w3.org/2000/svg">
<path d="M9.19647 8.92915C9.3251 8.59234 9.51389 8.28015 9.75496 8.00839C10.1076 7.61084 10.5595 7.31407 11.0645 7.14841C11.5694 6.98274 12.1093 6.95414 12.6289 7.06551C13.1485 7.17688 13.6292 7.42424 14.0219 7.7823C14.4146 8.14035 14.7052 8.59626 14.8639 9.10342C15.0227 9.61058 15.0439 10.1508 14.9254 10.6688C14.807 11.1869 14.5531 11.6642 14.1897 12.052C13.8263 12.4397 13.3665 12.724 12.8572 12.8758L12.5 12.9823V13.355V13.5H11.5V12.5C11.5 12.3674 11.5527 12.2402 11.6464 12.1464C11.7402 12.0527 11.8674 12 12 12H12C12.3788 12 12.7498 11.8924 13.0698 11.6898C13.3898 11.4872 13.6457 11.1978 13.8077 10.8554C13.9697 10.5131 14.0312 10.1317 13.9849 9.75579C13.9387 9.37985 13.7866 9.02478 13.5465 8.73188C13.3063 8.43898 12.9879 8.22031 12.6283 8.10129C12.2687 7.98228 11.8827 7.96782 11.5153 8.05961C11.1478 8.15139 10.8139 8.34564 10.5525 8.61976C10.4082 8.77115 10.2892 8.94346 10.1991 9.12998L9.19647 8.92915ZM12 21.5C6.75314 21.5 2.5 17.2469 2.5 12C2.5 6.75314 6.75314 2.5 12 2.5C17.2469 2.5 21.5 6.75314 21.5 12C21.5 17.2469 17.2469 21.5 12 21.5ZM12 20.5C14.2543 20.5 16.4163 19.6045 18.0104 18.0104C19.6045 16.4163 20.5 14.2543 20.5 12C20.5 9.74566 19.6045 7.58365 18.0104 5.98959C16.4163 4.39553 14.2543 3.5 12 3.5C9.74566 3.5 7.58365 4.39553 5.98959 5.98959C4.39553 7.58365 3.5 9.74566 3.5 12C3.5 14.2543 4.39553 16.4163 5.98959 18.0104C7.58365 19.6045 9.74566 20.5 12 20.5ZM12.5 15.5V16.5H11.5V15.5H12.5Z" fill="black" stroke="black"/>
</svg>
