<svg width="24" height="24" viewBox="0 0 24 24" fill="none" xmlns="http://www.w3.org/2000/svg">
<path fill-rule="evenodd" clip-rule="evenodd" d="M10.3799 12C10.3799 11.5858 10.7157 11.25 11.1299 11.25H20.9999C21.4141 11.25 21.7499 11.5858 21.7499 12C21.7499 12.4142 21.4141 12.75 20.9999 12.75H11.1299C10.7157 12.75 10.3799 12.4142 10.3799 12Z" fill="black"/>
<path fill-rule="evenodd" clip-rule="evenodd" d="M21 11.25C21.4142 11.25 21.75 11.5858 21.75 12V15.48C21.75 15.8942 21.4142 16.23 21 16.23C20.5858 16.23 20.25 15.8942 20.25 15.48V12C20.25 11.5858 20.5858 11.25 21 11.25Z" fill="black"/>
<path fill-rule="evenodd" clip-rule="evenodd" d="M17 11.25C17.4142 11.25 17.75 11.5858 17.75 12V15.48C17.75 15.8942 17.4142 16.23 17 16.23C16.5858 16.23 16.25 15.8942 16.25 15.48V12C16.25 11.5858 16.5858 11.25 17 11.25Z" fill="black"/>
<path fill-rule="evenodd" clip-rule="evenodd" d="M9.40906 9.65594C8.11447 8.36135 6.01553 8.36135 4.72094 9.65594C3.42635 10.9505 3.42635 13.0495 4.72094 14.3441C6.01553 15.6386 8.11447 15.6386 9.40906 14.3441C10.7036 13.0495 10.7036 10.9505 9.40906 9.65594ZM10.4697 8.59528C8.58935 6.7149 5.54065 6.7149 3.66028 8.59528C1.77991 10.4757 1.77991 13.5243 3.66028 15.4047C5.54065 17.2851 8.58935 17.2851 10.4697 15.4047C12.3501 13.5243 12.3501 10.4757 10.4697 8.59528Z" fill="black"/>
</svg>
