<svg width="24" height="24" viewBox="0 0 24 24" fill="none" xmlns="http://www.w3.org/2000/svg">
<path d="M7.40097 5.45284L1.48473 11.0543C1.18898 11.2999 1 11.5887 1 12.0007C1 12.4112 1.18898 12.7007 1.48473 12.9479L7.40097 18.5473C7.43915 18.5852 7.47541 18.6006 7.50707 18.6006C7.56318 18.6006 7.60154 18.5504 7.59999 18.4923L7.54794 18.3837C6.15938 16.6951 5.1488 14.7581 5.1488 12.021C5.1488 9.28118 6.15938 7.30633 7.54794 5.6171C7.58312 5.58292 7.59836 5.5448 7.59999 5.50881C7.60154 5.44921 7.56318 5.40051 7.50707 5.40051C7.47541 5.40051 7.43915 5.41593 7.40097 5.45284Z" fill="#DE0D2F"/>
<path d="M12.0093 4.3001C9.62958 4.3001 8.69922 7.82362 8.69922 12.0232C8.69922 16.2243 9.62958 19.7002 12.0093 19.7002C13.4382 19.7002 14.6552 18.826 14.6596 18.1081C14.66 17.9511 14.6018 17.8009 14.4756 17.6691C13.7985 16.9864 13.5342 16.3029 13.5326 15.7011C13.5274 14.5506 14.4832 13.694 15.3637 13.694C16.5747 13.694 17.288 14.6873 17.288 15.9745C17.288 17.1944 16.7908 18.2109 16.2497 19.0237L16.2192 19.1266C16.2192 19.1909 16.2553 19.243 16.3095 19.243C16.3417 19.243 16.3803 19.2251 16.422 19.1807L22.5022 13.0397C22.8058 12.7687 22.9993 12.4512 22.9993 12.001C22.9993 11.5492 22.8058 11.2324 22.5022 10.9631L16.422 4.81998C16.3803 4.77718 16.3417 4.75827 16.3095 4.75827C16.2549 4.75827 16.2192 4.81069 16.2192 4.87505L16.2497 4.97823C16.7908 5.79038 17.288 6.8079 17.288 8.02669C17.288 9.313 16.5747 10.3082 15.3637 10.3082C14.4832 10.3082 13.5274 9.45188 13.5326 8.30106C13.5342 7.69901 13.7985 7.01558 14.4756 6.33248C14.6018 6.20044 14.66 6.05148 14.6596 5.89356C14.6552 5.17463 13.4382 4.3001 12.0093 4.3001Z" fill="#005091"/>
</svg>
