<svg width="134" height="95" viewBox="0 0 134 95" fill="none" xmlns="http://www.w3.org/2000/svg">
<path d="M42.1511 3.77309L3.192 41.4712C1.24443 43.1242 0 45.0681 0 47.8406C0 50.6034 1.24443 52.5517 3.192 54.2151L42.1511 91.9C42.4025 92.1545 42.6413 92.2583 42.8498 92.2583C43.2192 92.2583 43.4719 91.9203 43.4617 91.5294L43.1189 90.7986C33.9751 79.434 27.3203 66.398 27.3203 47.977C27.3203 29.5381 33.9751 16.2472 43.1189 4.8786C43.3506 4.64854 43.4509 4.39201 43.4617 4.14974C43.4719 3.74866 43.2192 3.42088 42.8498 3.42088C42.6413 3.42088 42.4025 3.52471 42.1511 3.77309Z" fill="white" fill-opacity="0.2"/>
<path d="M72.1015 0.68737C56.8172 0.68737 50.8418 22.2641 50.8418 47.9807C50.8418 73.7068 56.8172 94.9917 72.1015 94.9917C81.2787 94.9917 89.0948 89.6385 89.123 85.2421C89.126 84.2812 88.7519 83.3609 87.9415 82.5543C83.5925 78.3733 81.8951 74.1882 81.8849 70.5029C81.8513 63.4574 87.9904 58.2118 93.6456 58.2118C101.423 58.2118 106.004 64.2944 106.004 72.177C106.004 79.6471 102.811 85.8719 99.336 90.8493L99.1402 91.4791C99.1402 91.8732 99.3717 92.1922 99.7201 92.1922C99.9265 92.1922 100.174 92.0825 100.443 91.8102L139.493 54.2055C141.443 52.5457 142.686 50.6015 142.686 47.8446C142.686 45.078 141.443 43.1382 139.493 41.4888L100.443 3.87088C100.174 3.6088 99.9265 3.49299 99.7201 3.49299C99.3692 3.49299 99.1402 3.81398 99.1402 4.20811L99.336 4.83995C102.811 9.81328 106.004 16.0441 106.004 23.5076C106.004 31.3845 101.423 37.4784 93.6456 37.4784C87.9904 37.4784 81.8513 32.2349 81.8849 25.1877C81.8951 21.501 83.5925 17.3159 87.9415 13.1329C88.7519 12.3243 89.126 11.4121 89.123 10.4451C89.0948 6.04263 81.2787 0.68737 72.1015 0.68737Z" fill="white" fill-opacity="0.2"/>
</svg>
