<svg width="239" height="46" viewBox="0 0 239 46" fill="none" xmlns="http://www.w3.org/2000/svg">
<path d="M190.488 1.98411L171.689 20.1747C170.749 20.9723 170.148 21.9103 170.148 23.2481C170.148 24.5813 170.749 25.5214 171.689 26.324L190.488 44.5082C190.609 44.631 190.724 44.6812 190.825 44.6812C191.003 44.6812 191.125 44.5181 191.12 44.3295L190.955 43.9768C186.543 38.493 183.331 32.2027 183.331 23.314C183.331 14.4166 186.543 8.00327 190.955 2.51755C191.067 2.40654 191.115 2.28276 191.12 2.16585C191.125 1.97232 191.003 1.81416 190.825 1.81416C190.724 1.81416 190.609 1.86426 190.488 1.98411Z" fill="white"/>
<path d="M204.94 0.495033C197.565 0.495033 194.682 10.9065 194.682 23.3157C194.682 35.7293 197.565 46 204.94 46C209.368 46 213.14 43.4169 213.154 41.2955C213.155 40.8318 212.975 40.3877 212.583 39.9985C210.485 37.9811 209.666 35.9616 209.661 34.1834C209.645 30.7836 212.607 28.2525 215.336 28.2525C219.089 28.2525 221.299 31.1875 221.299 34.9911C221.299 38.5957 219.759 41.5994 218.082 44.0012L217.987 44.305C217.987 44.4952 218.099 44.6491 218.267 44.6491C218.367 44.6491 218.486 44.5962 218.616 44.4648L237.459 26.3193C238.4 25.5184 239 24.5802 239 23.25C239 21.915 238.4 20.979 237.459 20.1831L218.616 2.03118C218.486 1.90472 218.367 1.84883 218.267 1.84883C218.098 1.84883 217.987 2.00372 217.987 2.1939L218.082 2.49879C219.759 4.89858 221.299 7.90518 221.299 11.5065C221.299 15.3074 219.089 18.2479 215.336 18.2479C212.607 18.2479 209.645 15.7178 209.661 12.3173C209.666 10.5383 210.485 8.51886 212.583 6.5004C212.975 6.11024 213.155 5.67008 213.154 5.20345C213.14 3.07912 209.368 0.495033 204.94 0.495033Z" fill="white"/>
<path d="M31.5007 24.1064C29.4812 24.1064 28.0122 25.1211 28.0122 27.0644C28.0122 28.8881 29.292 30.1561 31.2121 30.1561C32.4929 30.1561 33.7757 29.4474 34.5746 28.4256V25.8334C34.5746 24.9699 33.4545 24.1064 31.5007 24.1064ZM75.0812 23.7476C75.1754 27.1612 77.3561 29.6303 81.1014 29.6303C83.3763 29.6303 85.1081 28.3975 85.7138 27.6254C85.9994 27.84 86.2899 28.1653 86.2899 28.918C86.2899 30.6151 84.2388 32.9647 79.4686 32.9647C74.6658 32.9647 70.7602 29.1414 70.7602 24.1328C70.7602 18.6282 74.3784 14.6941 79.7243 14.6941C84.5937 14.6941 86.833 18.273 86.833 21.3172C86.833 22.2176 86.6418 23.0512 86.2581 23.7476H75.0812ZM81.8706 21.5423C82.6388 21.5423 82.6706 21.0921 82.6706 20.4906C82.6388 18.695 81.2283 17.0296 79.086 17.0296C76.2975 17.0296 75.209 19.3616 75.1139 21.5423H81.8706ZM127.054 23.424C127.054 27.592 127.629 29.7217 130.32 29.7217C133.263 29.7217 134.066 27.0978 134.066 24.7114V20.1617C134.066 18.5983 133.325 17.9898 131.63 18.1745C130.928 16.4141 133.263 15.2991 134.581 15.0423C134.993 14.979 135.38 14.9157 135.733 14.9157C137.589 14.9157 138.302 16.0711 138.302 17.7999C138.302 18.4347 138.24 19.5902 138.24 24.3825C138.24 26.4014 138.208 27.4742 138.208 27.8066C138.208 29.3858 138.938 30.186 140.629 30.0049C141.322 31.7618 139.004 32.5989 137.68 32.8433C137.274 32.9049 136.905 32.9647 136.6 32.9647C134.839 32.9647 134.482 31.8251 134.126 30.186C133.88 30.492 133.649 30.747 133.172 31.2043C132.018 32.2858 130.516 32.9348 128.816 32.9348C126.955 32.9348 125.386 32.2225 124.394 31.053C122.857 29.2311 122.857 26.878 122.857 23.4539V20.1617C122.857 18.5983 122.12 17.9898 120.422 18.1745C119.721 16.4141 122.057 15.2991 123.371 15.0423C123.787 14.979 124.168 14.9157 124.522 14.9157C126.381 14.9157 127.088 16.0711 127.088 17.7999L127.054 23.424ZM118.951 23.781C118.951 18.3697 115.206 14.6941 110.019 14.6941C105.214 14.6941 100.956 18.3697 100.956 23.781C100.956 29.2663 104.961 32.9348 109.857 32.9348C115.044 32.9348 118.951 29.2012 118.951 23.781ZM38.5794 28.5487C38.5794 29.931 39.4716 30.3707 41.0438 30.5852C40.9467 32.1926 39.8235 32.8134 38.515 32.9348C37.039 33.0597 35.5996 32.3773 35.0217 30.8385C34.3476 31.4505 32.3649 32.9946 29.7707 32.9946C26.2179 32.9946 23.5583 30.6151 23.5583 27.3757C23.5583 23.9481 26.5392 21.9186 30.7313 21.9186C32.1737 21.9186 33.6765 22.2176 34.5746 22.6854V20.3904C34.5746 18.3363 33.6765 17.0296 31.341 17.0296C30.8583 17.0296 29.8024 17.1597 28.9707 17.4728C29.0658 17.7999 29.1304 18.1446 29.1304 18.4682C29.1304 19.7203 28.3304 20.7403 26.9852 20.7403C25.8016 20.7403 24.9065 19.7819 24.9065 18.5649C24.9065 16.3226 27.7217 14.6941 31.6285 14.6941C34.7341 14.6941 36.6256 15.4257 37.6188 16.706C38.515 17.828 38.5794 19.5603 38.5794 22.0523V28.5487ZM114.371 24.0431C114.371 28.204 112.579 30.4656 110.049 30.4656C107.806 30.4656 105.63 28.204 105.63 23.2693C105.63 19.4284 107.229 17.0296 109.857 17.0296C112.451 17.0296 114.371 19.6904 114.371 24.0431ZM51.2601 17.7348C51.3544 18.8234 52.2842 19.5902 53.3696 19.5902C54.7505 19.5902 55.5813 18.3697 55.5813 17.1861C55.5813 15.5242 54.2361 14.6572 52.8909 14.6572C51.3544 14.6572 49.7197 15.8126 48.7919 17.5396L48.7275 17.5695C48.44 16.0412 47.7045 14.8858 46.1659 14.8858C45.8159 14.8858 45.4304 14.9456 45.015 15.0775C43.7342 15.4609 41.8429 16.4475 42.5457 18.2079C44.3399 17.8632 44.9814 18.4682 44.9814 20.0298V27.4742C44.9814 28.9515 44.7901 29.5723 44.2794 30.0049C43.7987 30.3707 43.2833 30.5254 42.966 30.5852C42.2276 32.1926 43.6707 32.6938 47.2216 32.6938C50.7774 32.6938 51.9968 32.1926 51.2601 30.5852C50.9371 30.5254 50.0389 30.3707 49.5581 30.0049C49.0465 29.5723 48.8256 28.9515 48.8256 27.4742V22.9844C48.8256 18.9746 50.2967 17.9265 51.2601 17.7348ZM95.3205 15.1408H99.8974C100.443 16.4475 99.7091 17.5062 98.685 17.6047C98.3598 17.6328 98.0109 17.6328 97.6917 17.6328C96.8571 17.6328 96.0254 17.5695 95.4486 17.5695V27.4742C95.4486 28.9515 95.7043 29.5723 96.2168 30.0049C96.6956 30.3707 97.8176 30.5254 98.1388 30.5852C98.8753 32.1926 97.1435 32.6938 93.5888 32.6938C90.0379 32.6938 88.5638 32.1926 89.3014 30.5852C89.6195 30.5254 90.132 30.3707 90.6128 30.0049C91.1244 29.5723 91.3177 28.9515 91.3177 27.4742V17.5062L88.6273 17.4095C88.0821 16.1028 88.8206 15.1707 89.9071 15.1707H91.2553V13.8904C91.2553 11.2999 91.7331 9.85783 92.3753 8.89936C93.3667 7.36407 95.0648 6.30888 97.7214 6.30888C101.081 6.30888 103.804 7.8776 103.804 10.2412C103.804 11.2647 103.098 12.5151 101.627 12.5151C100.543 12.5151 99.5137 11.5883 99.5137 10.4347C99.5137 9.95456 99.7091 9.44103 99.9648 9.12096C99.5782 8.67426 98.7772 8.44915 98.0109 8.44915C95.8014 8.44915 95.3205 10.0829 95.3205 12.13V15.1408ZM65.8273 17.7348C65.9246 18.8234 66.8525 19.5902 67.9418 19.5902C69.3207 19.5902 70.1515 18.3697 70.1515 17.1861C70.1515 15.5242 68.8063 14.6572 67.4611 14.6572C65.9246 14.6572 64.2898 15.8126 63.3621 17.5396L63.2986 17.5695C63.0121 16.0412 62.2745 14.8858 60.738 14.8858C60.3842 14.8858 59.9995 14.9456 59.5861 15.0775C58.3014 15.4609 56.411 16.4475 57.1178 18.2079C58.9111 17.8632 59.5484 18.4682 59.5484 20.0298V27.4742C59.5484 28.9515 59.3601 29.5723 58.8457 30.0049C58.3668 30.3707 57.8522 30.5254 57.5341 30.5852C56.7986 32.1926 58.2369 32.6938 61.7918 32.6938C65.3476 32.6938 66.5628 32.1926 65.8273 30.5852C65.5092 30.5254 64.6111 30.3707 64.1303 30.0049C63.6208 29.5723 63.3927 28.9515 63.3927 27.4742V22.9844C63.3927 18.9746 64.8668 17.9265 65.8273 17.7348ZM151.055 17.7348C151.161 18.8234 152.098 19.5902 153.192 19.5902C154.548 19.5902 155.385 18.3697 155.385 17.1861C155.385 15.5242 154.057 14.6572 152.691 14.6572C151.161 14.6572 149.546 15.8126 148.619 17.5396L148.524 17.5695C148.245 16.0412 147.503 14.8858 145.995 14.8858C145.617 14.8858 145.253 14.9456 144.815 15.0775C143.553 15.4609 141.667 16.4475 142.355 18.2079C144.156 17.8632 144.784 18.4682 144.784 20.0298V27.4742C144.784 28.9515 144.601 29.5723 144.073 30.0049C143.612 30.3707 143.083 30.5254 142.779 30.5852C142.035 32.1926 143.491 32.6938 147.044 32.6938C150.594 32.6938 151.795 32.1926 151.055 30.5852C150.749 30.5254 149.854 30.3707 149.351 30.0049C148.867 29.5723 148.653 28.9515 148.653 27.4742V22.9844C148.653 18.9746 150.098 17.9265 151.055 17.7348ZM0 20.2426C0 28.3166 5.56805 33.1001 11.621 33.1001C17.0652 33.1001 20.8748 29.275 20.8748 26.0919C20.8748 24.3966 19.8171 23.162 18.4403 23.162C17.0335 23.162 15.8459 24.1169 15.8459 25.756C15.8459 26.8059 16.4229 27.3898 16.8403 27.8541C16.1037 29.275 14.5364 30.4445 12.1018 30.4445C8.06621 30.4445 5.15283 26.2467 5.15283 20.2092C5.15283 14.1595 7.93923 9.93521 11.972 9.93521C14.4065 9.93521 15.9757 11.1205 16.7124 12.5292C16.297 13.0058 15.7161 13.5844 15.7161 14.6431C15.7161 16.2734 16.9038 17.2301 18.3123 17.2301C19.6912 17.2301 20.7469 15.9902 20.7469 14.2896C20.7469 11.1205 16.9373 7.27965 11.4931 7.27965C5.4402 7.27965 0 12.5292 0 20.2426Z" fill="white"/>
</svg>
