<svg width="24" height="24" viewBox="0 0 24 24" fill="none" xmlns="http://www.w3.org/2000/svg">
<path fill-rule="evenodd" clip-rule="evenodd" d="M15.001 2.25635C15.4152 2.25635 15.751 2.59213 15.751 3.00635V8.99884C15.751 9.41306 15.4152 9.74884 15.001 9.74884C14.5868 9.74884 14.251 9.41306 14.251 8.99884V3.00635C14.251 2.59213 14.5868 2.25635 15.001 2.25635Z" fill="black"/>
<path fill-rule="evenodd" clip-rule="evenodd" d="M8.99854 4.02686C9.41275 4.02686 9.74854 4.36264 9.74854 4.77686V19.0028C9.74854 19.417 9.41275 19.7528 8.99854 19.7528C8.58432 19.7528 8.24854 19.417 8.24854 19.0028V4.77686C8.24854 4.36264 8.58432 4.02686 8.99854 4.02686Z" fill="black"/>
<path fill-rule="evenodd" clip-rule="evenodd" d="M14.1282 2.38769C14.694 2.19955 15.3042 2.19955 15.87 2.38769L20.5564 3.9495C21.2705 4.18751 21.7536 4.85601 21.7536 5.61042V9.99925C21.7536 10.4135 21.4178 10.7492 21.0036 10.7492C20.5894 10.7492 20.2536 10.4135 20.2536 9.99925V5.61042C20.2536 5.50247 20.1844 5.40664 20.0821 5.37254L15.3967 3.81106C15.1383 3.72526 14.86 3.72514 14.6016 3.81102C14.6016 3.81103 14.6017 3.811 14.6016 3.81102L9.86803 5.38854C9.86801 5.38855 9.86804 5.38854 9.86803 5.38854C9.30294 5.5769 8.6933 5.57691 8.12821 5.38856C8.12819 5.38856 8.12823 5.38857 8.12821 5.38856L4.07552 4.038C3.9145 3.98424 3.74609 4.10408 3.74609 4.27586V15.6196C3.74609 15.7155 3.80031 15.8021 3.88394 15.8437L8.43957 18.1211C8.79058 18.2969 9.2058 18.2971 9.55891 18.1209C9.55887 18.1209 9.55895 18.1209 9.55891 18.1209L11.6643 17.0677C12.0348 16.8824 12.4853 17.0325 12.6706 17.4029C12.8559 17.7734 12.7058 18.2239 12.3354 18.4092L10.2295 19.4627C9.45617 19.8486 8.54376 19.8509 7.76833 19.4625L3.21471 17.1862C3.2146 17.1861 3.21481 17.1862 3.21471 17.1862C2.62023 16.8897 2.24609 16.2819 2.24609 15.6196V4.27586C2.24609 3.08121 3.41636 2.23683 4.54976 2.61494L8.60245 3.9655C8.85967 4.05124 9.13647 4.05126 9.39369 3.96552L14.1282 2.38769Z" fill="black"/>
<path fill-rule="evenodd" clip-rule="evenodd" d="M20.24 21.7985L20.2399 21.7985C19.2719 22.739 17.7347 22.7392 16.7664 21.799C16.2163 21.2651 15.4323 20.4333 14.7761 19.4519C14.1409 18.502 13.501 17.2294 13.501 15.8496C13.501 13.0874 15.7402 10.8481 18.5024 10.8481C21.2647 10.8481 23.5039 13.0874 23.5039 15.8496C23.5039 17.2294 22.864 18.5019 22.229 19.4518C21.5729 20.4331 20.7893 21.2648 20.24 21.7985ZM17.8111 20.7226C18.1973 21.0978 18.8086 21.0978 19.1947 20.7226C20.2151 19.7312 22.0039 17.7264 22.0039 15.8496C22.0039 13.9158 20.4362 12.3481 18.5024 12.3481C16.5686 12.3481 15.001 13.9158 15.001 15.8496C15.001 17.7264 16.7897 19.7312 17.8111 20.7226Z" fill="black"/>
<path fill-rule="evenodd" clip-rule="evenodd" d="M16.7427 15.7517C16.7455 16.7255 17.5368 17.5065 18.5028 17.5065C19.4743 17.5065 20.2629 16.7179 20.2629 15.7464C20.2629 14.7702 19.4715 13.9863 18.5018 13.9863C17.5293 13.9863 16.7387 14.7762 16.7427 15.7517ZM18.2427 15.7464C18.2417 15.6034 18.3577 15.4863 18.5018 15.4863C18.5021 15.4863 18.5025 15.4863 18.5028 15.4863C18.6462 15.4869 18.7609 15.6008 18.7629 15.7428C18.7629 15.744 18.7629 15.7452 18.7629 15.7464C18.7629 15.8895 18.6459 16.0065 18.5028 16.0065C18.5025 16.0065 18.5021 16.0065 18.5018 16.0065C18.3592 16.006 18.2427 15.8902 18.2427 15.7464Z" fill="black"/>
</svg>
