<svg width="24" height="24" viewBox="0 0 24 24" fill="none" xmlns="http://www.w3.org/2000/svg">
<path fill-rule="evenodd" clip-rule="evenodd" d="M3 12.25C3 11.8358 3.41669 11.5 3.93071 11.5H20.0693C20.5833 11.5 21 11.8358 21 12.25C21 12.6642 20.5833 13 20.0693 13H3.93071C3.41669 13 3 12.6642 3 12.25Z" fill="black"/>
<path fill-rule="evenodd" clip-rule="evenodd" d="M3 17.75C3 17.3358 3.41669 17 3.93071 17H20.0693C20.5833 17 21 17.3358 21 17.75C21 18.1642 20.5833 18.5 20.0693 18.5H3.93071C3.41669 18.5 3 18.1642 3 17.75Z" fill="black"/>
<path fill-rule="evenodd" clip-rule="evenodd" d="M3 6.75C3 6.33579 3.41669 6 3.93071 6H20.0693C20.5833 6 21 6.33579 21 6.75C21 7.16421 20.5833 7.5 20.0693 7.5H3.93071C3.41669 7.5 3 7.16421 3 6.75Z" fill="black"/>
</svg>
