<svg width="24" height="24" viewBox="0 0 24 24" fill="none" xmlns="http://www.w3.org/2000/svg">
<path fill-rule="evenodd" clip-rule="evenodd" d="M9.50879 17.2527C9.923 17.2527 10.2588 17.5885 10.2588 18.0027V18.5149C10.2588 18.9764 10.4422 19.4189 10.7686 19.7451C11.0951 20.0713 11.5378 20.2543 11.9992 20.2539L11.9998 21.0039L12.0001 20.2539C12.4617 20.2541 12.9045 20.0709 13.231 19.7445C13.5574 19.4182 13.7409 18.9755 13.7409 18.5139V18.0027C13.7409 17.5885 14.0767 17.2527 14.4909 17.2527C14.9051 17.2527 15.2409 17.5885 15.2409 18.0027V18.5139C15.2409 19.3734 14.8993 20.1977 14.2914 20.8054C13.6836 21.413 12.8593 21.7542 11.9999 21.7539C11.1406 21.7545 10.3163 21.4136 9.7084 20.8062C9.1004 20.1987 8.75879 19.3744 8.75879 18.5149V18.0027C8.75879 17.5885 9.09458 17.2527 9.50879 17.2527Z" fill="black"/>
<path fill-rule="evenodd" clip-rule="evenodd" d="M5.24742 8.99884C5.24742 5.26954 8.27061 2.24634 11.9999 2.24634C15.7292 2.24634 18.7524 5.26954 18.7524 8.99884V12.7377L19.8979 13.8823C20.4451 14.4307 20.7526 15.1735 20.7532 15.9481C20.7532 17.4967 19.4979 18.7526 17.9494 18.7526H6.05044C5.30681 18.7526 4.59364 18.4572 4.06781 17.9314C3.54199 17.4055 3.24658 16.6924 3.24658 15.9487C3.2472 15.1741 3.55478 14.4307 4.10196 13.8823L5.24742 12.7377V8.99884ZM4.74658 15.949C4.74666 16.2947 4.88402 16.6262 5.12847 16.8707C5.37299 17.1152 5.70463 17.2526 6.05044 17.2526H17.9494C18.6693 17.2526 19.2529 16.6692 19.2532 15.9493M4.74658 15.949C4.74696 15.5714 4.8969 15.2093 5.16359 14.942C5.16354 14.9421 5.16364 14.942 5.16359 14.942L6.52755 13.579C6.66832 13.4384 6.74742 13.2475 6.74742 13.0485V8.99884C6.74742 6.09796 9.09904 3.74634 11.9999 3.74634C14.9008 3.74634 17.2524 6.09796 17.2524 8.99884V13.0485C17.2524 13.2475 17.3315 13.4384 17.4723 13.579L18.8361 14.9419C18.836 14.9418 18.8362 14.9419 18.8361 14.9419C19.1028 15.2092 19.2529 15.5717 19.2532 15.9493" fill="black"/>
</svg>
