<svg width="24" height="24" viewBox="0 0 24 24" fill="none" xmlns="http://www.w3.org/2000/svg">
<path fill-rule="evenodd" clip-rule="evenodd" d="M3.78386 7.83187C3.58386 6.77187 3.89286 5.70287 4.63386 4.96187L5.28586 4.30987C6.06686 3.52887 7.33286 3.52887 8.11386 4.30987L9.28786 5.48387C9.87386 6.06987 9.87386 7.01887 9.20286 7.68987L8.38386 8.50787C8.16686 8.72487 8.09386 9.05387 8.21786 9.33487C8.80386 10.6639 9.68586 11.9739 10.8559 13.1439C12.0259 14.3139 13.3359 15.1969 14.6649 15.7839C14.9459 15.9079 15.2749 15.8349 15.4919 15.6179L16.3949 14.7139C16.9799 14.1279 17.9299 14.1279 18.5159 14.7139L19.6889 15.8869C20.4699 16.6679 20.4699 17.9339 19.6889 18.7149L19.0379 19.3659C18.2969 20.1069 17.2279 20.4159 16.1679 20.2159C13.5549 19.7219 10.6939 18.2039 8.24486 15.7549C5.79586 13.3059 4.27786 10.4449 3.78386 7.83187ZM15.3336 13.6538C15.3335 13.6539 15.3337 13.6537 15.3336 13.6538C16.5051 12.4806 18.4053 12.482 19.5765 13.6532L20.7495 14.8262C22.1163 16.193 22.1163 18.4087 20.7495 19.7755L20.0985 20.4265C18.986 21.5391 17.407 21.9761 15.8897 21.6899C12.9404 21.1323 9.81567 19.447 7.1842 16.8155C4.55272 14.1841 2.86754 11.0598 2.30996 8.11052C2.0237 6.59329 2.46066 5.01374 3.5732 3.90121L4.2252 3.24921C5.59198 1.88242 7.80773 1.88242 9.17452 3.24921L10.3485 4.42321C11.5734 5.64814 11.4657 7.54833 10.2635 8.75053L9.81285 9.20065C10.3154 10.1974 11.0164 11.1831 11.9165 12.0832C12.8168 12.9835 13.8026 13.6852 14.7994 14.1886L15.3336 13.6538Z" fill="black"/>
</svg>
