<svg width="24" height="24" viewBox="0 0 24 24" fill="none" xmlns="http://www.w3.org/2000/svg">
<path fill-rule="evenodd" clip-rule="evenodd" d="M15.0303 9.96967C15.3232 10.2626 15.3232 10.7374 15.0303 11.0303L12.0303 14.0303C11.7374 14.3232 11.2626 14.3232 10.9697 14.0303L9.46967 12.5303C9.17678 12.2374 9.17678 11.7626 9.46967 11.4697C9.76256 11.1768 10.2374 11.1768 10.5303 11.4697L11.5 12.4393L13.9697 9.96967C14.2626 9.67678 14.7374 9.67678 15.0303 9.96967Z" fill="black"/>
<path fill-rule="evenodd" clip-rule="evenodd" d="M11.1801 2.37506C11.714 2.20831 12.286 2.20831 12.8199 2.37506L12.5964 3.09042L12.8199 2.37506L19.3199 4.40529C20.4681 4.76394 21.25 5.82728 21.25 7.03023V10.7536C21.25 15.4969 18.3072 19.7424 13.8656 21.407C13.8656 21.407 13.8656 21.407 13.8656 21.407L13.8412 21.4161L13.8412 21.4161C12.6544 21.8609 11.3467 21.8613 10.1596 21.4173L10.1596 21.4173L10.1295 21.406C5.69141 19.746 2.75 15.5054 2.75 10.767V7.03017C2.75 5.82721 3.53188 4.76387 4.68014 4.40523L11.1801 2.37506ZM12.3727 3.80685C12.13 3.73105 11.87 3.73105 11.6273 3.80685L11.4039 3.09136L11.6273 3.80685L5.12734 5.83702L4.90374 5.12112L5.12734 5.83702C4.6054 6.00003 4.25 6.48337 4.25 7.03017V10.767C4.25 14.8797 6.80298 18.5603 10.655 20.0011L10.6551 20.0011L10.6851 20.0123C10.6851 20.0123 10.6851 20.0123 10.6851 20.0124C11.5331 20.3295 12.4671 20.3292 13.3148 20.0115C13.3148 20.0115 13.3148 20.0115 13.3148 20.0115L13.3391 20.0024L13.3392 20.0024C17.1952 18.5573 19.75 14.8715 19.75 10.7536V7.03023C19.75 6.48343 19.3946 6.0001 18.8727 5.83707L12.3727 3.80685Z" fill="black"/>
</svg>
