<svg width="24" height="24" viewBox="0 0 24 24" fill="none" xmlns="http://www.w3.org/2000/svg">
<path fill-rule="evenodd" clip-rule="evenodd" d="M13.5005 2.74146C12.5334 2.74146 11.7494 3.52542 11.7494 4.4925V4.99271C11.7494 5.40692 11.4136 5.74271 10.9994 5.74271H7.99818C7.30736 5.74271 6.74734 6.30272 6.74734 6.99354V9.49458C6.74734 9.90879 6.41156 10.2446 5.99734 10.2446H5.49714C4.53006 10.2446 3.74609 11.0285 3.74609 11.9956C3.74609 12.9627 4.53006 13.7467 5.49714 13.7467H5.99734C6.41156 13.7467 6.74734 14.0824 6.74734 14.4967V16.9977C6.74734 17.6885 7.30736 18.2485 7.99818 18.2485H10.9994C11.4136 18.2485 11.7494 18.5843 11.7494 18.9985V19.4987C11.7494 20.4658 12.5334 21.2498 13.5005 21.2498C14.4675 21.2498 15.2515 20.4658 15.2515 19.4987V18.9985C15.2515 18.5843 15.5873 18.2485 16.0015 18.2485H19.0028C19.6936 18.2485 20.2536 17.6885 20.2536 16.9977V15.2467H20.2533C19.3911 15.2467 18.5641 14.9041 17.9544 14.2945C17.3448 13.6848 17.0022 12.8579 17.0022 11.9956C17.0022 10.2001 18.4578 8.74458 20.2533 8.74458H20.2536V6.99354C20.2536 6.30272 19.6936 5.74271 19.0028 5.74271H16.0015C15.5873 5.74271 15.2515 5.40692 15.2515 4.99271V4.4925C15.2515 3.52542 14.4675 2.74146 13.5005 2.74146ZM13.5005 22.7498C11.789 22.7498 10.3864 21.4273 10.2589 19.7485H7.99818C6.47893 19.7485 5.24734 18.5169 5.24734 16.9977V15.2372C3.56856 15.1097 2.24609 13.7071 2.24609 11.9956C2.24609 10.2842 3.56856 8.88159 5.24734 8.75403V6.99354C5.24734 5.4743 6.47893 4.24271 7.99818 4.24271H10.2589C10.3864 2.56392 11.789 1.24146 13.5005 1.24146C15.2119 1.24146 16.6145 2.56392 16.7421 4.24271H19.0028C20.522 4.24271 21.7536 5.47429 21.7536 6.99354V9.49458C21.7536 9.90879 21.4178 10.2446 21.0036 10.2446H20.2533C19.2862 10.2446 18.5022 11.0285 18.5022 11.9956C18.5022 12.46 18.6867 12.9054 19.0151 13.2338C19.3435 13.5622 19.7889 13.7467 20.2533 13.7467H21.0036C21.4178 13.7467 21.7536 14.0824 21.7536 14.4967V16.9977C21.7536 18.5169 20.522 19.7485 19.0028 19.7485H16.7421C16.6145 21.4273 15.2119 22.7498 13.5005 22.7498Z" fill="black"/>
</svg>
