<svg width="24" height="24" viewBox="0 0 24 24" fill="none" xmlns="http://www.w3.org/2000/svg">
<path fill-rule="evenodd" clip-rule="evenodd" d="M5.25 6C5.25 5.58579 5.58579 5.25 6 5.25H10C10.4142 5.25 10.75 5.58579 10.75 6V10C10.75 10.4142 10.4142 10.75 10 10.75H6C5.58579 10.75 5.25 10.4142 5.25 10V6ZM6.75 6.75V9.25H9.25V6.75H6.75Z" fill="black"/>
<path fill-rule="evenodd" clip-rule="evenodd" d="M5.25 14C5.25 13.5858 5.58579 13.25 6 13.25H10C10.4142 13.25 10.75 13.5858 10.75 14V18C10.75 18.4142 10.4142 18.75 10 18.75H6C5.58579 18.75 5.25 18.4142 5.25 18V14ZM6.75 14.75V17.25H9.25V14.75H6.75Z" fill="black"/>
<path fill-rule="evenodd" clip-rule="evenodd" d="M18.75 10C18.75 10.4142 18.4142 10.75 18 10.75H14C13.5858 10.75 13.25 10.4142 13.25 10V6C13.25 5.58579 13.5858 5.25 14 5.25L18 5.25C18.4142 5.25 18.75 5.58579 18.75 6V10ZM17.25 9.25V6.75L14.75 6.75V9.25H17.25Z" fill="black"/>
<path fill-rule="evenodd" clip-rule="evenodd" d="M15.4345 15.4345C15.7469 15.1221 16.2535 15.1221 16.5659 15.4345C16.8783 15.7469 16.8783 16.2535 16.5659 16.5659C16.2535 16.8783 15.7469 16.8783 15.4345 16.5659C15.1221 16.2535 15.1221 15.7469 15.4345 15.4345Z" fill="black"/>
<path fill-rule="evenodd" clip-rule="evenodd" d="M13.4345 13.4345C13.7469 13.1221 14.2535 13.1221 14.5659 13.4345C14.8783 13.7469 14.8783 14.2535 14.5659 14.5659C14.2535 14.8783 13.7469 14.8783 13.4345 14.5659C13.1221 14.2535 13.1221 13.7469 13.4345 13.4345Z" fill="black"/>
<path fill-rule="evenodd" clip-rule="evenodd" d="M13.4345 17.4345C13.7469 17.1221 14.2535 17.1221 14.5659 17.4345C14.8783 17.7469 14.8783 18.2535 14.5659 18.5659C14.2535 18.8783 13.7469 18.8783 13.4345 18.5659C13.1221 18.2535 13.1221 17.7469 13.4345 17.4345Z" fill="black"/>
<path fill-rule="evenodd" clip-rule="evenodd" d="M17.4345 17.4345C17.7469 17.1221 18.2535 17.1221 18.5659 17.4345C18.8783 17.7469 18.8783 18.2535 18.5659 18.5659C18.2535 18.8783 17.7469 18.8783 17.4345 18.5659C17.1221 18.2535 17.1221 17.7469 17.4345 17.4345Z" fill="black"/>
<path fill-rule="evenodd" clip-rule="evenodd" d="M15.272 2.5C15.272 2.08579 15.6078 1.75 16.022 1.75H19.5C21.0192 1.75 22.25 2.98079 22.25 4.5V7.978C22.25 8.39221 21.9142 8.728 21.5 8.728C21.0858 8.728 20.75 8.39221 20.75 7.978V4.5C20.75 3.80921 20.1908 3.25 19.5 3.25H16.022C15.6078 3.25 15.272 2.91421 15.272 2.5Z" fill="black"/>
<path fill-rule="evenodd" clip-rule="evenodd" d="M1.75 4.5C1.75 2.98079 2.98079 1.75 4.5 1.75H7.978C8.39221 1.75 8.728 2.08579 8.728 2.5C8.728 2.91421 8.39221 3.25 7.978 3.25H4.5C3.80921 3.25 3.25 3.80921 3.25 4.5V7.978C3.25 8.39221 2.91421 8.728 2.5 8.728C2.08579 8.728 1.75 8.39221 1.75 7.978V4.5Z" fill="black"/>
<path fill-rule="evenodd" clip-rule="evenodd" d="M2.5 15.272C2.91421 15.272 3.25 15.6078 3.25 16.022V19.5C3.25 20.1908 3.80921 20.75 4.5 20.75H7.978C8.39221 20.75 8.728 21.0858 8.728 21.5C8.728 21.9142 8.39221 22.25 7.978 22.25H4.5C2.98079 22.25 1.75 21.0192 1.75 19.5V16.022C1.75 15.6078 2.08579 15.272 2.5 15.272Z" fill="black"/>
<path fill-rule="evenodd" clip-rule="evenodd" d="M21.5 15.272C21.9142 15.272 22.25 15.6078 22.25 16.022V19.5C22.25 21.0192 21.0192 22.25 19.5 22.25H16.022C15.6078 22.25 15.272 21.9142 15.272 21.5C15.272 21.0858 15.6078 20.75 16.022 20.75H19.5C20.1908 20.75 20.75 20.1908 20.75 19.5V16.022C20.75 15.6078 21.0858 15.272 21.5 15.272Z" fill="black"/>
<path fill-rule="evenodd" clip-rule="evenodd" d="M17.4345 13.4345C17.7469 13.1221 18.2535 13.1221 18.5659 13.4345C18.8783 13.7469 18.8783 14.2535 18.5659 14.5659C18.2535 14.8783 17.7469 14.8783 17.4345 14.5659C17.1221 14.2535 17.1221 13.7469 17.4345 13.4345Z" fill="black"/>
</svg>
