<svg width="24" height="24" viewBox="0 0 24 24" fill="none" xmlns="http://www.w3.org/2000/svg">
<path fill-rule="evenodd" clip-rule="evenodd" d="M8.99854 7.87305C9.41275 7.87305 9.74854 8.20883 9.74854 8.62305V8.9982C9.74854 10.2415 10.7565 11.2495 11.9998 11.2495C13.2431 11.2495 14.251 10.2415 14.251 8.9982V8.62305C14.251 8.20883 14.5868 7.87305 15.001 7.87305C15.4152 7.87305 15.751 8.20883 15.751 8.62305V8.9982C15.751 11.07 14.0715 12.7495 11.9998 12.7495C9.92803 12.7495 8.24854 11.07 8.24854 8.9982V8.62305C8.24854 8.20883 8.58432 7.87305 8.99854 7.87305Z" fill="black"/>
<path d="M5.07764 3.70696C5.61998 2.80306 6.5968 2.25 7.65092 2.25H16.3567C17.4108 2.25 18.3876 2.80306 18.93 3.70696L21.3299 7.70686C21.6097 8.17325 21.7576 8.70692 21.7576 9.25082C21.7576 11.1854 20.1892 12.7537 18.2546 12.7537H18.0063C15.9345 12.7537 14.2551 11.0743 14.2551 9.0025V8.62734C14.2551 8.21313 14.5908 7.87734 15.0051 7.87734C15.4193 7.87734 15.7551 8.21313 15.7551 8.62734V9.0025C15.7551 10.2458 16.763 11.2537 18.0063 11.2537H18.2546C19.3608 11.2537 20.2576 10.357 20.2576 9.25082C20.2576 8.97879 20.1836 8.71187 20.0437 8.4786L17.6437 4.47871C17.3725 4.02662 16.8839 3.75 16.3567 3.75H7.65092C7.12369 3.75 6.63513 4.02662 6.36388 4.47871L5.07764 3.70696Z" fill="black"/>
<path fill-rule="evenodd" clip-rule="evenodd" d="M6.36382 4.47871C6.36382 4.47871 6.36382 4.47871 6.36382 4.47871L3.96389 8.4786C3.82393 8.71187 3.75 8.97879 3.75 9.25082C3.75 10.357 4.64674 11.2537 5.75293 11.2537H6.00125C7.24458 11.2537 8.2525 10.2458 8.2525 9.0025V8.62734C8.2525 8.21313 8.58829 7.87734 9.0025 7.87734C9.41671 7.87734 9.7525 8.21313 9.7525 8.62734V9.0025C9.7525 11.0743 8.07301 12.7537 6.00125 12.7537H5.75293C3.81832 12.7537 2.25 11.1854 2.25 9.25082C2.25 8.70692 2.39782 8.17325 2.67765 7.70686L5.07758 3.70696L5.07758 3.70696C5.61993 2.80306 6.59675 2.25 7.65087 2.25H16.3566C17.4107 2.25 18.3876 2.80306 18.9299 3.70696L21.3298 7.70685C21.6097 8.17324 21.7575 8.70691 21.7575 9.25081C21.7575 11.1854 20.1892 12.7537 18.2546 12.7537H18.0062C15.9345 12.7537 14.255 11.0743 14.255 9.0025V8.62734C14.255 8.21313 14.5908 7.87734 15.005 7.87734C15.4192 7.87734 15.755 8.21313 15.755 8.62734V9.0025C15.755 10.2458 16.7629 11.2537 18.0062 11.2537H18.2546C19.3608 11.2537 20.2575 10.357 20.2575 9.25081C20.2575 8.97878 20.1836 8.71186 20.0436 8.47859L17.6437 4.47871C17.3724 4.02662 16.8839 3.75 16.3566 3.75H7.65087C7.12364 3.75 6.63508 4.02662 6.36382 4.47871Z" fill="black"/>
<path fill-rule="evenodd" clip-rule="evenodd" d="M4.12158 10.7139C4.5358 10.7139 4.87158 11.0497 4.87158 11.4639V18.7525C4.87158 19.5815 5.54357 20.2535 6.37252 20.2535H17.6272C18.4562 20.2535 19.1281 19.5815 19.1281 18.7525V11.4641C19.1281 11.0499 19.4639 10.7141 19.8781 10.7141C20.2924 10.7141 20.6281 11.0499 20.6281 11.4641V18.7525C20.6281 20.4099 19.2846 21.7535 17.6272 21.7535H6.37252C4.71515 21.7535 3.37158 20.4099 3.37158 18.7525V11.4639C3.37158 11.0497 3.70737 10.7139 4.12158 10.7139Z" fill="black"/>
<path fill-rule="evenodd" clip-rule="evenodd" d="M9.56201 16.8457C9.56201 16.4315 9.8978 16.0957 10.312 16.0957H13.6884C14.1026 16.0957 14.4384 16.4315 14.4384 16.8457C14.4384 17.2599 14.1026 17.5957 13.6884 17.5957H10.312C9.8978 17.5957 9.56201 17.2599 9.56201 16.8457Z" fill="black"/>
</svg>
