<svg width="24" height="24" viewBox="0 0 24 24" fill="none" xmlns="http://www.w3.org/2000/svg">
<path fill-rule="evenodd" clip-rule="evenodd" d="M12 2.25C12.2837 2.25 12.5431 2.41005 12.6703 2.66359L15.3116 7.92639L21.0929 8.64777C21.3756 8.68305 21.614 8.87553 21.708 9.14453C21.802 9.41353 21.7355 9.71257 21.5363 9.91632L17.4243 14.122L18.5568 19.8546C18.6117 20.1327 18.5052 20.4179 18.2816 20.5919C18.0579 20.766 17.7552 20.7991 17.4992 20.6775L12 18.0653L6.50081 20.6775C6.24482 20.7991 5.94215 20.766 5.71848 20.5919C5.4948 20.4179 5.38831 20.1327 5.44324 19.8546L6.57572 14.122L2.46375 9.91632C2.26454 9.71257 2.198 9.41353 2.29202 9.14453C2.38605 8.87553 2.62439 8.68305 2.90716 8.64777L8.68847 7.92639L11.3297 2.66359C11.4569 2.41005 11.7163 2.25 12 2.25ZM12 4.67206L9.84934 8.95741C9.73701 9.18123 9.52038 9.33422 9.27188 9.36523L4.5935 9.94899L7.92429 13.3557C8.09707 13.5324 8.1717 13.7829 8.1238 14.0254L7.20369 18.683L11.6782 16.5575C11.8819 16.4608 12.1182 16.4608 12.3218 16.5575L16.7963 18.683L15.8762 14.0254C15.8283 13.7829 15.903 13.5324 16.0757 13.3557L19.4065 9.94899L14.7282 9.36523C14.4797 9.33422 14.263 9.18123 14.1507 8.95741L12 4.67206Z" fill="black"/>
</svg>
