<svg width="24" height="24" viewBox="0 0 24 24" fill="none" xmlns="http://www.w3.org/2000/svg">
<path fill-rule="evenodd" clip-rule="evenodd" d="M9.88518 2.84412C9.88512 2.84419 9.88523 2.84405 9.88518 2.84412L8.75001 4.26309V5C8.75001 5.13779 8.86222 5.25 9.00001 5.25H15C15.1378 5.25 15.25 5.13779 15.25 5V4.26293L14.1158 2.84412C14.1158 2.84403 14.1159 2.84422 14.1158 2.84412C14.068 2.78461 13.996 2.75 13.92 2.75H10.081C10.005 2.75 9.93303 2.78456 9.88518 2.84412ZM16 4L16.5858 3.5317L15.2868 1.9067L15.2862 1.90588C14.954 1.49157 14.4519 1.25 13.92 1.25H10.081C9.54913 1.25 9.04699 1.49157 8.71484 1.90588L7.41436 3.53148C7.30517 3.66795 7.24928 3.83505 7.25001 4.00337V4H8.00001V4.75C7.7117 4.75 7.44892 4.58474 7.32403 4.32489C7.27485 4.22257 7.25048 4.11271 7.25001 4.00337V5C7.25001 5.96621 8.03379 6.75 9.00001 6.75H15C15.9662 6.75 16.75 5.96621 16.75 5V4H16Z" fill="black"/>
<path fill-rule="evenodd" clip-rule="evenodd" d="M3.25 6C3.25 4.48079 4.48079 3.25 6 3.25H8C8.41421 3.25 8.75 3.58579 8.75 4C8.75 4.41421 8.41421 4.75 8 4.75H6C5.30921 4.75 4.75 5.30921 4.75 6V19C4.75 19.6908 5.30921 20.25 6 20.25H18C18.6908 20.25 19.25 19.6908 19.25 19V6C19.25 5.30921 18.6908 4.75 18 4.75H16C15.5858 4.75 15.25 4.41421 15.25 4C15.25 3.58579 15.5858 3.25 16 3.25H18C19.5192 3.25 20.75 4.48079 20.75 6V19C20.75 20.5192 19.5192 21.75 18 21.75H6C4.48079 21.75 3.25 20.5192 3.25 19V6Z" fill="black"/>
<path fill-rule="evenodd" clip-rule="evenodd" d="M7.25 11C7.25 10.5858 7.58579 10.25 8 10.25H16C16.4142 10.25 16.75 10.5858 16.75 11C16.75 11.4142 16.4142 11.75 16 11.75H8C7.58579 11.75 7.25 11.4142 7.25 11Z" fill="black"/>
<path fill-rule="evenodd" clip-rule="evenodd" d="M7.25 16C7.25 15.5858 7.58579 15.25 8 15.25H16C16.4142 15.25 16.75 15.5858 16.75 16C16.75 16.4142 16.4142 16.75 16 16.75H8C7.58579 16.75 7.25 16.4142 7.25 16Z" fill="black"/>
</svg>
