<svg width="24" height="24" viewBox="0 0 24 24" fill="none" xmlns="http://www.w3.org/2000/svg">
<path fill-rule="evenodd" clip-rule="evenodd" d="M11.25 3C11.25 2.58579 11.5858 2.25 12 2.25C17.3962 2.25 21.75 6.60379 21.75 12C21.75 17.3962 17.3962 21.75 12 21.75C11.5858 21.75 11.25 21.4142 11.25 21C11.25 20.5858 11.5858 20.25 12 20.25C16.5678 20.25 20.25 16.5678 20.25 12C20.25 7.43221 16.5678 3.75 12 3.75C11.5858 3.75 11.25 3.41421 11.25 3Z" fill="black"/>
<path fill-rule="evenodd" clip-rule="evenodd" d="M12 3.75C7.43221 3.75 3.75 7.43221 3.75 12C3.75 16.5678 7.43221 20.25 12 20.25C12.4142 20.25 12.75 20.5858 12.75 21C12.75 21.4142 12.4142 21.75 12 21.75C6.60379 21.75 2.25 17.3962 2.25 12C2.25 6.60379 6.60379 2.25 12 2.25C12.4142 2.25 12.75 2.58579 12.75 3C12.75 3.41421 12.4142 3.75 12 3.75Z" fill="black"/>
<path fill-rule="evenodd" clip-rule="evenodd" d="M9.52457 3.67461C10.662 1.77513 13.3382 1.77585 14.4763 3.67439L14.4764 3.67461C17.5085 8.73684 17.5085 15.264 14.4765 20.3263M9.52451 3.67473C6.49246 8.73698 6.49248 15.2641 9.52457 20.3264C10.6617 22.2256 13.3392 22.2256 14.4764 20.3264M13.1896 4.44538C12.6336 3.51817 11.3661 3.51893 10.8115 4.44526L10.8114 4.44538C8.06352 9.03311 8.06352 14.9679 10.8114 19.5556L10.8115 19.5557C11.3663 20.4824 12.6347 20.4824 13.1895 19.5557L13.1896 19.5556C15.9374 14.968 15.9375 9.0333 13.1897 4.4456" fill="black"/>
<path fill-rule="evenodd" clip-rule="evenodd" d="M3.29337 7.63677C3.41561 7.24101 3.83554 7.01927 4.2313 7.14151C8.97912 8.60798 15.0208 8.60797 19.7676 7.14153C20.1633 7.01926 20.5833 7.24097 20.7055 7.63673C20.8278 8.03249 20.6061 8.45243 20.2103 8.57469C15.1751 10.1303 8.82481 10.1302 3.78863 8.57471C3.39286 8.45247 3.17113 8.03254 3.29337 7.63677Z" fill="black"/>
<path fill-rule="evenodd" clip-rule="evenodd" d="M3.78956 15.4255C8.8248 13.8699 15.1751 13.8699 20.2113 15.4254C20.607 15.5477 20.8288 15.9676 20.7065 16.3634C20.5843 16.7591 20.1644 16.9809 19.7686 16.8586C15.0208 15.3922 8.97908 15.3922 4.23232 16.8586C3.83656 16.9809 3.41662 16.7592 3.29436 16.3634C3.17209 15.9677 3.39381 15.5477 3.78956 15.4255Z" fill="black"/>
</svg>
